<svg width="24" height="24" viewBox="0 0 24 24" fill="none" xmlns="http://www.w3.org/2000/svg">
<rect width="24" height="24" rx="12" fill="#0C0C0C"/>
<g clip-path="url(#clip0_1417_5778)">
<rect x="2.39941" y="2.40015" width="19.2" height="19.2" rx="9.6" fill="white"/>
<path d="M20.1821 2.40015H3.81675C3.44085 2.40015 3.08034 2.54947 2.81454 2.81527C2.54874 3.08108 2.39941 3.44158 2.39941 3.81748V20.1828C2.39941 20.5587 2.54874 20.9192 2.81454 21.185C3.08034 21.4508 3.44085 21.6001 3.81675 21.6001H20.1821C20.558 21.6001 20.9185 21.4508 21.1843 21.185C21.4501 20.9192 21.5994 20.5587 21.5994 20.1828V3.81748C21.5994 3.44158 21.4501 3.08108 21.1843 2.81527C20.9185 2.54947 20.558 2.40015 20.1821 2.40015ZM8.12208 18.7561H5.23541V9.58681H8.12208V18.7561ZM6.67675 8.31615C6.34931 8.3143 6.02975 8.2155 5.7584 8.03222C5.48706 7.84893 5.27609 7.58937 5.15212 7.2863C5.02815 6.98322 4.99673 6.65022 5.06184 6.32931C5.12695 6.0084 5.28566 5.71397 5.51794 5.48317C5.75022 5.25238 6.04567 5.09556 6.36699 5.03252C6.68831 4.96947 7.0211 5.00302 7.32338 5.12893C7.62565 5.25485 7.88385 5.46748 8.06539 5.74C8.24693 6.01251 8.34367 6.3327 8.34341 6.66015C8.3465 6.87937 8.30542 7.09698 8.22262 7.29999C8.13982 7.503 8.017 7.68727 7.86147 7.8418C7.70594 7.99633 7.52089 8.11797 7.31735 8.19947C7.11381 8.28096 6.89595 8.32064 6.67675 8.31615ZM18.7621 18.7641H15.8767V13.7548C15.8767 12.2775 15.2487 11.8215 14.4381 11.8215C13.5821 11.8215 12.7421 12.4668 12.7421 13.7921V18.7641H9.85541V9.59348H12.6314V10.8641H12.6687C12.9474 10.3001 13.9234 9.33615 15.4127 9.33615C17.0234 9.33615 18.7634 10.2921 18.7634 13.0921L18.7621 18.7641Z" fill="#0C0C0C"/>
</g>
<defs>
<clipPath id="clip0_1417_5778">
<rect x="2.39941" y="2.40015" width="19.2" height="19.2" rx="9.6" fill="white"/>
</clipPath>
</defs>
</svg>
