<svg width="32" height="32" viewBox="0 0 32 32" fill="none" xmlns="http://www.w3.org/2000/svg">
<rect x="1.41667" y="1.45378" width="29.1667" height="29.1667" rx="14.5833" fill="white"/>
<rect x="1.41667" y="1.45378" width="29.1667" height="29.1667" rx="14.5833" stroke="#0C0C0C" stroke-width="1.16667"/>
<g clip-path="url(#clip0_1591_8618)">
<rect x="5.99902" y="6.03735" width="20" height="20" rx="10" fill="#0C0C0C"/>
<path d="M24.5226 6.03735H7.47541C7.08385 6.03735 6.70832 6.1929 6.43145 6.46978C6.15457 6.74665 5.99902 7.12218 5.99902 7.51374V24.561C5.99902 24.9525 6.15457 25.3281 6.43145 25.6049C6.70832 25.8818 7.08385 26.0374 7.47541 26.0374H24.5226C24.9142 26.0374 25.2897 25.8818 25.5666 25.6049C25.8435 25.3281 25.999 24.9525 25.999 24.561V7.51374C25.999 7.12218 25.8435 6.74665 25.5666 6.46978C25.2897 6.1929 24.9142 6.03735 24.5226 6.03735ZM11.9601 23.0749H8.95319V13.5235H11.9601V23.0749ZM10.4546 12.1999C10.1135 12.1979 9.78062 12.095 9.49797 11.9041C9.21532 11.7132 8.99556 11.4428 8.86642 11.1271C8.73729 10.8114 8.70456 10.4645 8.77238 10.1302C8.8402 9.79595 9.00553 9.48925 9.24749 9.24884C9.48945 9.00843 9.7972 8.84508 10.1319 8.7794C10.4666 8.71373 10.8133 8.74868 11.1281 8.87984C11.443 9.011 11.712 9.23249 11.9011 9.51636C12.0902 9.80023 12.191 10.1338 12.1907 10.4749C12.1939 10.7032 12.1511 10.9299 12.0649 11.1414C11.9786 11.3528 11.8507 11.5448 11.6887 11.7057C11.5267 11.8667 11.3339 11.9934 11.1219 12.0783C10.9099 12.1632 10.6829 12.2045 10.4546 12.1999ZM23.0435 23.0832H20.0379V17.8651C20.0379 16.3262 19.3837 15.8512 18.5393 15.8512C17.6476 15.8512 16.7726 16.5235 16.7726 17.904V23.0832H13.7657V13.5304H16.6574V14.854H16.6962C16.9865 14.2665 18.0032 13.2624 19.5546 13.2624C21.2324 13.2624 23.0449 14.2582 23.0449 17.1749L23.0435 23.0832Z" fill="white"/>
</g>
<defs>
<clipPath id="clip0_1591_8618">
<rect x="5.99902" y="6.03735" width="20" height="20" rx="10" fill="white"/>
</clipPath>
</defs>
</svg>
