<svg width="42" height="40" viewBox="0 0 42 40" fill="none" xmlns="http://www.w3.org/2000/svg">
<g clip-path="url(#clip0_1161_1924)">
<g clip-path="url(#clip1_1161_1924)">
<path d="M24.1827 4.24347C26.4494 4.24347 28.6131 4.67202 30.6067 5.44719C27.3695 2.09023 22.8361 0 17.8154 0C7.97974 0 0.00537109 8.00378 0.00537109 17.8772C0.00537109 25.4756 4.72991 31.9626 11.3892 34.5507C8.28645 31.3324 6.37268 26.9524 6.37268 22.1207C6.37268 12.2473 14.3471 4.24347 24.1827 4.24347Z" fill="#0C0C0C"/>
<path d="M30.6088 5.44727C33.7116 8.66558 35.6254 13.0456 35.6254 17.8773C35.6254 27.7507 27.651 35.7545 17.8154 35.7545C15.5487 35.7545 13.3849 35.3259 11.3914 34.5508C14.6286 37.9077 19.162 39.998 24.1848 39.998C34.0204 39.998 41.9948 31.9942 41.9948 22.1208C41.9948 14.5224 37.2702 8.03536 30.6109 5.44727H30.6088Z" fill="#0C0C0C"/>
</g>
</g>
<defs>
<clipPath id="clip0_1161_1924">
<rect width="41.9873" height="40" fill="white" transform="translate(0.00634766)"/>
</clipPath>
<clipPath id="clip1_1161_1924">
<rect width="41.9894" height="39.9979" fill="white" transform="translate(0.00537109)"/>
</clipPath>
</defs>
</svg>
