<svg width="502" height="466" viewBox="0 0 502 466" fill="none" xmlns="http://www.w3.org/2000/svg">
<path d="M350.697 71.5161C334.066 65.9802 313.219 62.0192 290.215 59.9308C283.521 59.3224 276.646 58.8737 269.637 58.5932C266.422 58.4638 263.179 58.3689 259.914 58.3085C236.343 57.8813 213.483 59.3397 193.229 62.4938C183.534 64.004 174.433 65.9025 166.138 68.1635C144.164 74.1525 130.052 82.1305 125.516 90.9716C129.514 98.7641 140.954 106.043 158.874 112.006C166.491 114.543 174.994 116.748 184.184 118.595C203.57 122.491 226.017 124.787 249.662 125.214C252.347 125.261 255.019 125.287 257.687 125.287C281.99 125.287 305.296 123.268 325.475 119.462C331.788 118.267 337.796 116.899 343.432 115.363C365.407 109.37 379.518 101.392 384.055 92.5508C380.061 84.7583 368.617 77.4792 350.697 71.5161Z" stroke="#1F1F1F" stroke-width="2" stroke-miterlimit="10"/>
<path d="M350.693 71.5161C334.062 65.9802 313.215 62.0192 290.211 59.9308C283.517 59.3224 276.642 58.8737 269.633 58.5932C266.418 58.4638 263.175 58.3689 259.91 58.3085C236.339 57.8813 213.479 59.3397 193.226 62.4938C183.53 64.004 174.429 65.9025 166.134 68.1635C144.16 74.1525 130.049 82.1305 125.512 90.9716C129.51 98.7641 140.95 106.043 158.87 112.006C166.487 114.543 174.99 116.748 184.18 118.595C183.939 120.796 183.818 123.026 183.818 125.287C183.818 127.255 183.911 129.201 184.096 131.125C203.505 135.03 225.981 137.334 249.658 137.761C252.344 137.809 255.016 137.835 257.683 137.835C281.949 137.835 305.222 135.824 325.378 132.027C325.619 129.814 325.745 127.561 325.745 125.287C325.745 123.324 325.652 121.382 325.471 119.462C331.785 118.267 337.792 116.899 343.428 115.363C365.403 109.37 379.514 101.392 384.051 92.5508C380.057 84.7583 368.613 77.4792 350.693 71.5161Z" stroke="#1F1F1F" stroke-width="2" stroke-miterlimit="10"/>
<path d="M385.541 100.451C384.149 111.13 369.193 120.882 343.429 127.911C337.765 129.455 331.73 130.828 325.379 132.027C325.62 129.814 325.745 127.561 325.745 125.287C325.745 123.324 325.653 121.382 325.472 119.462C331.785 118.267 337.793 116.899 343.429 115.363C365.403 109.37 379.515 101.392 384.052 92.5508C385.383 95.1397 385.889 97.7803 385.541 100.451Z" fill="#1F1F1F" stroke="#1F1F1F" stroke-width="2" stroke-miterlimit="10"/>
<path d="M183.82 125.287C183.82 127.255 183.912 129.201 184.098 131.125C174.941 129.283 166.466 127.082 158.872 124.554C135.005 116.61 122.628 106.332 124.024 95.6187C124.229 94.0482 124.73 92.4991 125.514 90.9717C129.512 98.7642 140.952 106.043 158.872 112.006C166.489 114.544 174.992 116.748 184.182 118.595C183.94 120.796 183.82 123.026 183.82 125.287Z" fill="#1F1F1F" stroke="#1F1F1F" stroke-width="2" stroke-miterlimit="10"/>
<path d="M343.428 281.285C337.792 279.749 331.785 278.381 325.471 277.186C311.244 274.502 295.467 272.707 278.878 271.883C271.938 271.538 264.855 271.361 257.683 271.361C255.016 271.361 252.344 271.387 249.658 271.434C226.013 271.862 203.566 274.157 184.18 278.053C174.99 279.9 166.487 282.105 158.87 284.642C151.531 287.084 145.278 289.747 140.175 292.577C132.827 296.655 127.873 301.077 125.512 305.677C130.049 314.518 144.16 322.496 166.134 328.485C170.968 329.805 176.076 330.996 181.415 332.066C190.874 333.952 201.065 335.44 211.758 336.493C227.011 338.003 243.284 338.642 259.91 338.34C294.762 337.71 327.002 333.02 350.693 325.132C368.613 319.169 380.057 311.89 384.051 304.098C379.514 295.257 365.403 287.278 343.428 281.285Z" stroke="#1F1F1F" stroke-width="2" stroke-miterlimit="10"/>
<path d="M343.428 281.285C337.792 279.749 331.785 278.381 325.471 277.186C311.244 274.502 295.467 272.707 278.878 271.883C271.938 271.538 264.855 271.361 257.683 271.361C255.016 271.361 252.344 271.387 249.658 271.434C226.013 271.862 203.566 274.157 184.18 278.053C174.99 279.9 166.487 282.105 158.87 284.642C151.531 287.084 145.278 289.747 140.175 292.577C132.827 296.655 127.873 301.077 125.512 305.677C130.049 314.518 144.16 322.496 166.134 328.485C170.968 329.805 176.076 330.996 181.415 332.066C190.874 333.952 201.065 335.44 211.758 336.493C227.011 338.003 243.284 338.642 259.91 338.34C294.762 337.71 327.002 333.02 350.693 325.132C368.613 319.169 380.057 311.89 384.051 304.098C379.514 295.257 365.403 287.278 343.428 281.285Z" stroke="#1F1F1F" stroke-width="2" stroke-miterlimit="10"/>
<path d="M384.054 304.098C379.517 295.256 365.405 287.278 343.431 281.285C337.795 279.749 331.787 278.381 325.474 277.186C311.246 274.502 295.47 272.707 278.881 271.883C278.895 271.305 278.904 270.731 278.904 270.153C278.904 266.455 278.579 262.826 277.953 259.292C294.843 260.091 310.917 261.894 325.381 264.621C331.732 265.821 337.767 267.193 343.431 268.738C369.195 275.766 384.151 285.518 385.543 296.197C385.891 298.868 385.385 301.509 384.054 304.098Z" fill="#1F1F1F" stroke="#1F1F1F" stroke-width="2" stroke-miterlimit="10"/>
<path d="M140.177 292.577C132.829 296.655 127.875 301.077 125.514 305.677C124.73 304.149 124.229 302.6 124.024 301.03C123.148 294.307 127.698 287.753 137.106 281.842C137.807 285.535 138.841 289.125 140.177 292.577Z" fill="#1F1F1F" stroke="#1F1F1F" stroke-width="2" stroke-miterlimit="10"/>
<path d="M290.211 59.9309C280.326 75.7447 261.909 86.3979 240.867 86.3979C238.659 86.3979 236.479 86.2814 234.336 86.0527C249.241 80.9785 261.715 71.1709 269.633 58.5933C276.643 58.8737 283.517 59.3225 290.211 59.9309Z" fill="#1F1F1F" stroke="#1F1F1F" stroke-width="1.1" stroke-miterlimit="10"/>
<path d="M269.634 58.5932C261.715 71.1709 249.241 80.9785 234.336 86.0527C217.177 84.2232 202.305 75.2872 193.227 62.4938C213.48 59.3397 236.34 57.8813 259.911 58.3085C263.176 58.3689 266.419 58.4638 269.634 58.5932Z" stroke="#1F1F1F" stroke-width="1.1" stroke-miterlimit="10"/>
<path d="M269.634 58.5932C261.715 71.1709 249.241 80.9785 234.336 86.0527C217.177 84.2232 202.305 75.2872 193.227 62.4938C213.48 59.3397 236.34 57.8813 259.911 58.3085C263.176 58.3689 266.419 58.4638 269.634 58.5932Z" stroke="#1F1F1F" stroke-width="1.3" stroke-miterlimit="10"/>
<path d="M128.988 163.663C154.233 146.21 190.04 151.111 208.805 174.593C210.122 176.241 211.324 177.937 212.404 179.675C189.28 165.557 158.148 165.536 134.689 181.755C120.211 191.766 111.258 206.164 108.382 221.525C101.688 200.74 109.212 177.337 128.993 163.663H128.988Z" fill="#1F1F1F" stroke="#1F1F1F" stroke-width="1.1" stroke-miterlimit="10"/>
<path d="M134.689 181.755C158.148 165.536 189.28 165.557 212.405 179.675C226.734 202.678 220.527 232.605 197.054 248.838C171.81 266.291 136.002 261.389 117.238 237.904C113.174 232.817 110.238 227.272 108.387 221.525C111.267 206.164 120.216 191.766 134.694 181.755H134.689Z" stroke="#1F1F1F" stroke-width="1.1" stroke-miterlimit="10"/>
<path d="M134.689 181.755C158.148 165.536 189.28 165.557 212.405 179.675C226.734 202.678 220.527 232.605 197.054 248.838C171.81 266.291 136.002 261.389 117.238 237.904C113.174 232.817 110.238 227.272 108.387 221.525C111.267 206.164 120.216 191.766 134.694 181.755H134.689Z" stroke="#1F1F1F" stroke-width="1.3" stroke-miterlimit="10"/>
<path d="M277.955 259.292C271.312 258.973 264.54 258.813 257.688 258.813C255.021 258.813 252.349 258.839 249.663 258.887C225.986 259.314 203.51 261.618 184.101 265.523C174.944 267.365 166.469 269.566 158.875 272.094C149.987 275.05 142.69 278.334 137.109 281.842C137.81 285.535 138.844 289.125 140.18 292.577" stroke="#1F1F1F" stroke-width="2" stroke-miterlimit="10"/>
<path d="M80.857 260.811L131.319 267.383L80.4766 270.507L80.857 260.811Z" fill="#1F1F1F"/>
<path d="M104.878 236.169L120.367 254.831L98.1094 243.552L104.878 236.169Z" fill="#1F1F1F"/>
</svg>
