<svg width="435" height="435" viewBox="0 0 435 435" fill="none" xmlns="http://www.w3.org/2000/svg">
<path d="M229.811 359.746C135.265 359.746 58.6211 345.147 58.6211 327.138C58.6211 309.129 135.265 294.53 229.811 294.53C324.356 294.53 401 309.129 401 327.138C401 345.147 324.356 359.746 229.811 359.746Z" fill="#0C0C0C" stroke="#0C0C0C" stroke-width="14.8156" stroke-miterlimit="10"/>
<path d="M127.868 98.396C135.643 103.575 147.789 108.067 157.065 109.234L157.13 109.059C150.48 106.497 141.976 103.325 135.255 100.873C133.44 100.201 129.758 98.8684 127.933 98.2214L127.868 98.396Z" fill="#0C0C0C"/>
<path d="M147.787 32.5259L195.669 46.299L198.665 47.1518L199.414 47.3659L199.504 47.3921L199.567 47.4166L199.695 47.4611C199.775 47.497 199.856 47.5365 199.935 47.5805C200.99 48.2507 201.075 49.5646 200.257 50.4878C195.777 56.6939 188.327 66.9701 183.828 73.1955L180.178 78.2427L178.351 80.7648C178.116 81.0682 177.692 81.7108 177.462 81.9709C177.048 82.4355 176.409 82.7052 175.786 82.6505C175.395 82.6443 174.074 82.1354 173.668 82.0256C171.814 81.423 166.704 79.7725 164.781 79.147C155.55 76.1831 135.648 69.6849 126.265 66.6857L125.521 66.4473C125.406 66.4077 125.256 66.368 125.168 66.33C124.322 66.0606 123.809 65.0924 124.042 64.2396C124.109 63.9692 124.275 63.7153 124.439 63.4885C128.868 57.2402 136.239 46.9127 140.68 40.6503L144.289 35.5739L146.071 33.073C146.459 32.5606 147.173 32.3357 147.783 32.523L147.787 32.5259ZM148.351 30.5816C146.959 30.1529 145.35 30.6688 144.462 31.8289L142.618 34.393C137.866 41.0861 132.811 47.9484 127.871 54.4766C126.609 56.1613 123.472 60.287 122.209 61.9146C121.831 62.3866 121.525 62.9576 121.352 63.5488C120.69 65.7934 122.003 68.3391 124.224 69.1056C124.438 69.1925 125.129 69.4347 125.361 69.5213C139.073 74.5441 158.544 81.9652 172.154 86.7851L173.622 87.3155L173.713 87.349C176.317 88.2915 179.378 87.4504 181.182 85.3647C181.466 85.0736 181.709 84.6844 181.938 84.3519C183.287 82.3504 186.219 78.0023 187.599 75.9519C191.855 69.5391 198.88 58.9779 203.084 52.5573C205.217 49.8117 204.246 45.7023 200.959 44.4245C200.762 44.3644 200.515 44.2657 200.323 44.2237C199.94 44.1472 197.006 43.4256 196.53 43.3237C180.871 39.5778 163.804 35.0824 148.348 30.586L148.351 30.5816Z" fill="#0C0C0C"/>
<path d="M109.672 104.799C110.002 104.303 110.33 103.812 110.653 103.317" stroke="#0C0C0C" stroke-width="4.62987" stroke-miterlimit="10"/>
<path d="M121.335 63.648C120.92 65.5216 120.781 67.1899 120.619 68.8212C120.466 70.4465 120.379 72.0041 120.297 73.5492L120.114 78.178C120.057 79.7292 120.011 81.3007 119.996 82.9419L120.253 82.3206C120.109 82.8484 119.96 83.3734 119.843 83.9183C119.778 84.1843 119.72 84.4567 119.67 84.7349C119.619 85.0094 119.56 85.2818 119.519 85.5657C119.428 86.124 119.353 86.6901 119.305 87.2733C119.252 87.8536 119.234 88.4531 119.251 89.0717L119.596 89.2675L121.18 86.5082L122.8 83.7718L122.813 83.746L122.824 83.7092C123.306 82.0538 123.669 80.3633 123.913 78.6493C124.146 76.9377 124.299 75.2092 124.32 73.4751C124.346 71.7401 124.243 69.9986 124.022 68.2681C123.785 66.5407 123.477 64.8175 123.033 63.1166L121.331 63.6452L121.335 63.648Z" fill="#0C0C0C"/>
<path d="M177.314 136.433C168.856 147.701 160.159 158.788 151.318 169.757C142.495 180.601 133.465 191.455 123.046 200.743C108.161 213.943 92.2082 220.55 72.8667 212.532C64.4202 209.015 56.9937 203.668 50.0543 197.614L49.2826 198.398C55.5472 205.293 63.078 211.397 71.613 215.406C100.078 228.622 122.803 208.989 140.887 188.68C147.972 180.713 154.603 172.437 161.192 164.09C167.725 155.728 174.135 147.264 180.321 138.642L177.314 136.433Z" fill="#0C0C0C"/>
<path d="M224.892 62.9872C213.67 80.8724 201.863 98.3737 189.479 115.436L192.54 117.565C204.262 99.9373 215.373 81.9239 225.868 63.5718L224.892 62.9872Z" fill="#0C0C0C"/>
<path d="M151.767 113.637L151.677 113.313C151.657 113.222 151.533 113.192 151.472 113.263C150.718 114.042 149.988 114.839 149.248 115.631C148.511 116.415 147.781 117.212 147.057 118.008C146.803 118.277 146.9 118.737 147.238 118.884C148.597 119.496 149.981 120.048 151.336 120.676C152.659 121.311 154.003 121.891 155.431 122.258C155.791 122.401 156.218 122.311 156.425 121.984C156.799 121.425 157.164 120.856 157.491 120.258C157.844 119.638 158.176 118.99 158.456 118.317C158.486 118.246 158.448 118.159 158.372 118.141C158.244 118.131 158.006 117.95 157.933 118.123C157.932 118.26 158.089 118.348 158.155 118.46L158.114 118.182C156.994 118.981 155.996 119.898 155.049 120.876L156.043 120.601C153.449 119.374 150.458 118.772 147.71 117.831L147.958 118.738C149.207 116.98 150.444 115.213 151.654 113.433L151.438 113.388L151.6 113.727C151.659 113.84 151.815 113.753 151.765 113.645L151.767 113.637Z" fill="#0C0C0C"/>
<path d="M140.745 107.159L148.789 110.566L148.588 109.835C146.701 112.031 144.79 114.204 142.918 116.416L143.757 116.186C141.17 114.9 138.333 113.887 135.592 112.959L135.994 114.414C137.69 112.115 139.248 109.655 140.746 107.163L140.745 107.159ZM140.698 106.979C138.521 108.913 136.496 111.017 134.547 113.245C134.217 113.619 134.258 114.19 134.631 114.517C134.726 114.603 134.833 114.656 134.949 114.699C136.923 115.501 139.103 116.341 141.128 116.975C141.827 117.189 142.527 117.406 143.245 117.577C143.55 117.682 143.898 117.599 144.084 117.348C145.85 115.053 147.575 112.729 149.319 110.42C149.489 110.222 149.464 109.914 149.251 109.759C149.209 109.726 149.163 109.706 149.117 109.689L140.699 106.983L140.698 106.979Z" fill="#0C0C0C"/>
<path d="M127.751 103.813C127.71 103.833 127.213 103.881 127.199 103.941C125.684 105.62 124.205 107.325 122.704 109.013C122.554 109.183 122.569 109.443 122.74 109.597C122.783 109.637 122.835 109.664 122.888 109.682L126.946 111.372L131.011 113.03C131.317 113.154 131.653 113.05 131.843 112.802C133.748 110.583 135.782 108.467 137.491 106.085C137.78 105.693 137.694 105.143 137.302 104.855C136.656 104.534 135.924 104.4 135.239 104.168C134.028 103.815 132.814 103.481 131.584 103.2C130.949 103.056 130.316 102.92 129.671 102.813C129.529 102.775 129.459 103.05 129.389 103.149C129.321 103.237 129.434 103.353 129.521 103.281L129.792 103.053L129.61 103.112C131.789 104.4 134.082 105.456 136.406 106.448L136.012 105.011C135.05 106.096 134.139 107.219 133.279 108.384C132.428 109.555 131.568 110.72 130.698 111.877L131.53 111.649C129.456 110.945 125.274 109.558 123.191 108.883L123.375 109.553C124.711 107.734 126.068 105.925 127.388 104.09L127.321 104.132L127.802 103.992C127.918 103.963 127.872 103.786 127.759 103.811L127.751 103.813Z" fill="#0C0C0C"/>
<path d="M145.113 121.449L153.158 124.855L152.956 124.124C151.065 126.321 149.155 128.498 147.283 130.709L148.123 130.48C145.536 129.194 142.698 128.177 139.956 127.249L140.355 128.705C142.051 126.406 143.609 123.946 145.11 121.453L145.113 121.449ZM145.066 121.268C142.889 123.203 140.86 125.307 138.911 127.531C138.58 127.905 138.618 128.477 138.994 128.803C139.09 128.89 139.197 128.942 139.313 128.986C141.287 129.791 143.468 130.631 145.492 131.265C146.192 131.479 146.892 131.696 147.61 131.871C147.915 131.976 148.264 131.896 148.449 131.642C150.215 129.347 151.94 127.019 153.687 124.709C153.857 124.511 153.832 124.204 153.619 124.048C153.577 124.015 153.531 123.995 153.485 123.978L145.067 121.272L145.066 121.268Z" fill="#0C0C0C"/>
<path d="M132.883 116.908L140.923 120.315L140.721 119.584C138.835 121.779 136.925 123.957 135.053 126.168L135.892 125.939C133.305 124.653 130.467 123.636 127.726 122.708L128.124 124.163C129.82 121.864 131.379 119.405 132.88 116.912L132.883 116.908ZM132.835 116.727C130.659 118.661 128.63 120.766 126.68 122.99C126.35 123.364 126.387 123.936 126.764 124.262C126.859 124.348 126.966 124.401 127.082 124.445C129.056 125.246 131.237 126.09 133.261 126.724C133.961 126.938 134.661 127.155 135.379 127.33C135.685 127.435 136.034 127.355 136.219 127.101C137.984 124.806 139.709 122.478 141.453 120.169C141.623 119.971 141.598 119.663 141.384 119.508C141.343 119.475 141.296 119.454 141.251 119.438L132.836 116.731L132.835 116.727Z" fill="#0C0C0C"/>
<path d="M137.247 131.201L145.291 134.604L145.089 133.873C143.202 136.069 141.292 138.246 139.42 140.458L140.259 140.228C137.672 138.942 134.835 137.925 132.093 136.997L132.491 138.453C134.189 136.157 135.746 133.694 137.244 131.206L137.247 131.201ZM137.2 131.021C135.023 132.955 132.997 135.055 131.048 137.283C130.718 137.657 130.755 138.229 131.132 138.555C131.227 138.641 131.334 138.694 131.45 138.738C133.425 139.543 135.605 140.383 137.63 141.017C138.329 141.231 139.029 141.448 139.747 141.623C140.053 141.728 140.402 141.648 140.587 141.394C142.353 139.099 144.077 136.771 145.821 134.462C145.991 134.264 145.966 133.956 145.753 133.801C145.711 133.768 145.665 133.747 145.619 133.731L137.202 131.028L137.2 131.021Z" fill="#0C0C0C"/>
<path d="M127.791 136.468L133.581 129.915C133.746 129.729 133.726 129.444 133.542 129.282C130.807 128.089 128.014 126.997 125.248 125.869C124.934 125.743 124.613 125.863 124.408 126.098C122.361 128.153 120.56 130.429 118.808 132.736C118.467 133.131 118.521 133.742 118.941 134.059C121.778 135.141 124.836 135.858 127.791 136.468ZM127.743 136.288C125.134 134.884 122.567 133.583 119.864 132.448L120.264 133.911C122.15 131.711 123.992 129.469 125.568 127.036L124.728 127.265C127.495 128.218 130.281 129.124 133.054 130.056L132.853 129.329L127.74 136.288L127.743 136.288Z" fill="#0C0C0C"/>
<path d="M112.782 122.116L120.823 125.523L120.621 124.793C118.734 126.988 116.823 129.162 114.951 131.373L115.791 131.144C113.203 129.858 110.366 128.841 107.624 127.913L108.023 129.368C109.72 127.073 111.281 124.609 112.778 122.117L112.782 122.116ZM112.735 121.936C110.558 123.87 108.528 125.971 106.579 128.195C106.248 128.569 106.286 129.141 106.662 129.467C106.757 129.553 106.864 129.606 106.981 129.65C108.955 130.455 111.135 131.295 113.16 131.929C113.86 132.143 114.56 132.36 115.278 132.535C115.583 132.64 115.932 132.56 116.117 132.306C117.883 130.011 119.608 127.686 121.352 125.377C121.523 125.18 121.497 124.872 121.284 124.716C121.242 124.683 121.196 124.663 121.15 124.646L112.736 121.939L112.735 121.936Z" fill="#0C0C0C"/>
<path d="M117.148 136.405L125.21 139.755L125.036 139.117C122.381 142.198 119.739 145.288 117.115 148.393L117.955 148.163C115.306 146.91 112.563 145.872 109.799 144.896L110.216 146.416C112.746 143.148 114.869 139.988 117.148 136.405ZM117.1 136.225C114.244 138.926 111.293 142.107 108.712 145.194C108.294 145.675 108.492 146.46 109.082 146.694C109.777 146.977 110.478 147.232 111.181 147.495C113.242 148.258 115.319 148.976 117.439 149.559C117.745 149.667 118.089 149.581 118.278 149.329C120.759 146.111 123.223 142.873 125.671 139.627C125.854 139.419 125.763 139.072 125.497 138.989L117.104 136.224L117.1 136.225Z" fill="#0C0C0C"/>
<path d="M121.607 150.373L129.787 153.788C129.955 153.858 130.14 153.799 130.247 153.661C132.903 150.579 135.544 147.486 138.171 144.38C138.507 143.994 138.323 143.381 137.851 143.213C135.866 142.269 133.822 141.46 131.764 140.692C131.076 140.442 130.393 140.183 129.7 139.949C129.304 139.795 128.856 139.927 128.609 140.248C126.13 143.386 123.696 147.129 121.615 150.375L121.607 150.373ZM121.787 150.326C124.755 147.207 127.449 144.652 130.112 141.466L129.021 141.766C131.75 142.829 134.504 143.831 137.328 144.611L137.008 143.444C134.525 146.667 132.06 149.901 129.613 153.15L130.074 153.023C127.599 152.197 124.253 151.161 121.791 150.325L121.787 150.326Z" fill="#0C0C0C"/>
<path d="M101.415 126.507C103.089 124.61 104.943 122.284 106.499 120.283L107.183 119.362L107.039 119.245C106.048 119.427 105.303 119.808 104.633 120.252C102.606 121.688 101.253 123.79 101.271 126.389L101.415 126.507Z" fill="#0C0C0C"/>
<path d="M125.985 95.9103L126.394 95.4048" stroke="#0C0C0C" stroke-width="0.925974" stroke-miterlimit="10"/>
<path d="M102.014 99.3377C106.567 103.538 112.653 105.933 118.812 106.442C122.184 106.69 125.591 106.14 128.782 105.091C130.686 104.682 131.886 102.419 131.022 100.634C130.779 100.065 129.972 99.2375 129.592 98.7556C129.009 98.0279 128.368 97.3473 127.812 96.6022C122.348 88.9169 112.514 79.2628 102.481 79.0171C99.1792 78.9868 96.1608 80.3378 94.1956 83.0658C91.327 87.2321 91.0585 92.6738 91.7305 97.5281L92.1022 97.5346C92.4757 95.7159 92.8528 93.9307 93.3546 92.2099C94.1434 89.6017 95.0518 87.1735 96.8244 85.171C96.9481 85.0562 97.2997 84.7082 97.4291 84.5845C97.7211 84.3832 97.9886 84.1224 98.301 83.9625C100.903 82.3665 104.309 82.9618 107.225 83.8322C114.714 86.3027 121.074 92.0319 126.284 97.822C127.129 98.8245 127.843 100.096 128.565 101.198C128.789 101.543 128.758 101.523 128.762 101.804C128.735 102.066 128.523 102.315 128.246 102.341C126.466 102.722 124.663 102.891 122.876 102.977C119.39 103.132 115.883 103.124 112.437 102.446C108.958 101.813 105.557 100.613 102.229 99.0274L102.018 99.3369L102.014 99.3377Z" fill="#0C0C0C"/>
<path d="M91.5849 115.962C96.8726 119.524 103.469 121.129 109.84 120.915C113.328 120.802 116.789 120.01 120.006 118.662C122.19 117.684 122.802 114.615 121.101 112.929C121.012 112.837 120.804 112.635 120.71 112.537C119.329 111.144 117.563 109.545 116.082 108.223L116.425 108.793C116.425 108.793 116.352 108.462 116.351 108.458L116.078 108.22C112.583 105.19 108.766 102.386 104.651 100.258C98.1978 96.8284 89.6742 92.6792 83.1891 98.3769C77.7709 103.314 76.9853 111.629 78.6959 118.353L79.0662 118.317C79.3542 113.925 80.1311 109.464 82.126 105.615C87.1795 96.1987 95.3661 99.5397 103.268 103.099C107.375 104.84 111.303 106.932 114.736 109.8L114.394 109.23C114.394 109.23 114.467 109.565 114.468 109.569C115.157 110.189 115.884 110.771 116.561 111.409C117.563 112.339 118.483 113.352 119.364 114.397C119.875 114.934 119.625 115.939 118.895 116.095L118.432 116.211C115.932 116.808 113.376 117.199 110.819 117.467C107.664 117.791 104.475 117.82 101.311 117.493C98.1225 117.174 94.9423 116.511 91.7325 115.624L91.5776 115.964L91.5849 115.962Z" fill="#0C0C0C"/>
<path d="M79.079 134.773C84.0518 140.073 91.2863 143.11 98.5097 143.478C101.78 143.629 105.044 143.019 108.165 142.153C108.676 142.011 109.169 141.804 109.607 141.467C111.111 140.348 111.456 138.33 110.588 136.683C110.367 136.281 108.83 133.899 108.548 133.445C108.244 132.962 107.601 131.961 107.275 131.517C104.727 127.947 101.736 124.604 98.1262 122.064C96.447 120.862 94.5442 119.877 92.7102 118.98C86.8824 116.02 79.0023 113.819 73.847 119.26C70.6955 122.622 69.8119 127.171 70.1748 131.554C70.3562 133.641 70.8482 135.664 71.6128 137.555L71.9771 137.475C71.8505 135.464 71.8576 133.489 72.0838 131.572C72.6127 126.623 75.0768 120.537 80.6889 119.978C84.3476 119.583 87.8546 120.763 91.2645 122.163C96.9611 124.453 102.241 127.998 105.947 132.952C106.821 134.224 107.775 135.656 108.518 136.991C108.824 137.485 109.024 137.98 108.976 138.597C108.978 138.536 108.969 138.599 108.96 138.627C108.952 138.663 108.94 138.696 108.929 138.733C108.76 139.217 108.371 139.569 107.869 139.664C102.445 140.35 96.9267 140.376 91.5861 139.173C87.2707 138.277 83.2089 136.584 79.307 134.471L79.0774 134.766L79.079 134.773Z" fill="#0C0C0C"/>
<path d="M62.4456 156.864C57.7468 151.665 53.0319 146.549 48.9614 140.854C44.3743 134.943 41.1606 129.587 41.2712 121.816L41.2697 121.775L41.2859 121.901C41.3249 121.259 41.8216 120.806 42.3574 120.743C42.6209 120.708 42.8548 120.783 43.045 120.902L44.0558 121.666C53.6024 128.695 63.6256 135.093 74.3096 140.27C76.089 141.145 77.8941 141.98 79.7447 142.743L79.9431 142.429C78.4525 141.094 76.9192 139.826 75.3574 138.602C66.0648 131.215 55.9541 124.959 45.4806 119.399L44.8183 119.059C43.9079 118.51 42.7218 118.288 41.7362 118.687C40.3243 119.179 39.3862 120.72 39.6725 122.17C40.0735 125.121 41.047 129.329 42.0558 132.598C44.2175 140.249 47.4084 145.607 53.3579 150.956C56.0561 153.378 58.9869 155.521 62.216 157.159L62.4456 156.864Z" fill="#0C0C0C"/>
<path d="M139.298 287.207L177.408 363.732C233.43 368.362 308.434 361.88 308.434 361.88L269.341 297.156L236.157 241.545C236.603 243.551 234.797 246.657 231.592 250.228C225.459 257.079 214.205 265.655 203.867 271.558C189.741 279.625 175.636 283.667 163.385 285.602C161.765 285.86 160.179 286.077 158.631 286.263C151.188 287.161 144.586 287.311 139.298 287.207Z" fill="white"/>
<path d="M301.755 350.923C291.862 332.727 280.799 312.892 270.544 294.805C267.904 290.152 265.352 285.445 262.773 280.756C257.606 271.372 251.768 262.397 245.636 253.61C242.55 249.222 239.383 244.883 235.95 240.705C235.851 240.585 235.672 240.567 235.552 240.666C235.456 240.748 235.424 240.881 235.471 240.993C237.523 245.996 239.842 250.841 242.243 255.638C247.075 265.203 252.202 274.596 258.019 283.597C260.922 288.094 263.856 292.572 266.702 297.1C270.943 303.873 279.56 317.492 283.869 324.228C289.645 333.238 295.414 342.25 301.276 351.211C301.361 351.342 301.533 351.377 301.663 351.291C301.787 351.21 301.824 351.05 301.755 350.923Z" fill="#0C0C0C"/>
<path d="M86.7053 169.812C87.1904 170.023 87.3039 170.437 86.9611 170.737C86.6182 171.038 85.9501 171.107 85.4649 170.897C84.9798 170.686 84.8663 170.272 85.2092 169.971C85.552 169.671 86.2202 169.601 86.7053 169.812Z" fill="#0C0C0C" stroke="#0C0C0C" stroke-width="0.925974" stroke-miterlimit="10"/>
<path d="M83.4367 172.669C83.9219 172.88 84.0354 173.294 83.6925 173.594C83.3496 173.894 82.6815 173.964 82.1964 173.753C81.7113 173.542 81.5978 173.128 81.9406 172.828C82.2835 172.528 82.9516 172.458 83.4367 172.669Z" fill="#0C0C0C" stroke="#0C0C0C" stroke-width="0.925974" stroke-miterlimit="10"/>
<path d="M89.0145 172.079C89.2387 172.179 89.4016 172.33 89.4523 172.51C89.551 172.874 89.1599 173.215 88.5743 173.278C88.2829 173.308 87.9983 173.263 87.7705 173.164C87.5427 173.065 87.3834 172.913 87.3326 172.733C87.2339 172.369 87.6251 172.028 88.2107 171.964C88.502 171.935 88.7867 171.98 89.0145 172.079Z" fill="#0C0C0C" stroke="#0C0C0C" stroke-width="0.925974" stroke-miterlimit="10"/>
<path d="M88.0549 174.694C88.54 174.905 88.6535 175.319 88.3107 175.619C87.9678 175.92 87.2997 175.989 86.8146 175.779C86.3294 175.568 86.2159 175.154 86.5588 174.853C86.9016 174.553 87.5698 174.483 88.0549 174.694Z" fill="#0C0C0C" stroke="#0C0C0C" stroke-width="0.925974" stroke-miterlimit="10"/>
<path d="M84.3895 176.122C84.6137 176.222 84.7766 176.373 84.8273 176.553C84.926 176.917 84.5349 177.258 83.9493 177.321C83.6579 177.351 83.3733 177.306 83.1455 177.207C82.9177 177.108 82.7584 176.956 82.7076 176.776C82.6089 176.412 83.0001 176.071 83.5856 176.007C83.877 175.978 84.1617 176.023 84.3895 176.122Z" fill="#0C0C0C" stroke="#0C0C0C" stroke-width="0.925974" stroke-miterlimit="10"/>
<path d="M80.1633 175.53C80.6484 175.741 80.7619 176.155 80.4191 176.455C80.0762 176.755 79.4081 176.825 78.9229 176.614C78.4378 176.403 78.3244 175.989 78.6672 175.689C79.0101 175.389 79.6782 175.319 80.1633 175.53Z" fill="#0C0C0C" stroke="#0C0C0C" stroke-width="0.925974" stroke-miterlimit="10"/>
<path d="M77.8584 173.262C78.0826 173.362 78.2447 173.51 78.2963 173.694C78.3949 174.058 78.0038 174.399 77.4182 174.462C77.1269 174.491 76.8422 174.447 76.6188 174.35C76.3954 174.254 76.2325 174.103 76.181 173.919C76.0823 173.555 76.4734 173.214 77.059 173.151C77.3504 173.122 77.635 173.166 77.8584 173.262Z" fill="#0C0C0C" stroke="#0C0C0C" stroke-width="0.925974" stroke-miterlimit="10"/>
<path d="M78.8176 170.648C79.3027 170.858 79.4162 171.273 79.0734 171.573C78.7305 171.873 78.0624 171.943 77.5772 171.732C77.0921 171.521 76.9786 171.107 77.3215 170.807C77.6643 170.507 78.3325 170.437 78.8176 170.648Z" fill="#0C0C0C" stroke="#0C0C0C" stroke-width="0.925974" stroke-miterlimit="10"/>
<path d="M82.4834 169.217C82.7076 169.317 82.8697 169.464 82.9213 169.648C83.0199 170.012 82.6288 170.353 82.0432 170.416C81.7519 170.446 81.4672 170.401 81.2438 170.305C81.0204 170.209 80.8575 170.057 80.806 169.874C80.7073 169.51 81.0984 169.168 81.684 169.105C81.9754 169.076 82.26 169.121 82.4834 169.217Z" fill="#0C0C0C" stroke="#0C0C0C" stroke-width="0.925974" stroke-miterlimit="10"/>
<path d="M89.9651 166.962C90.4502 167.173 90.5637 167.587 90.2208 167.887C89.878 168.187 89.2098 168.257 88.7247 168.046C88.2396 167.835 88.1261 167.421 88.4689 167.121C88.8118 166.821 89.4799 166.751 89.9651 166.962Z" fill="#0C0C0C" stroke="#0C0C0C" stroke-width="0.925974" stroke-miterlimit="10"/>
<path d="M94.575 171.494C94.7992 171.594 94.9621 171.745 95.0129 171.925C95.1116 172.289 94.7204 172.63 94.1348 172.693C93.8435 172.723 93.5588 172.678 93.331 172.579C93.1032 172.48 92.9439 172.328 92.8932 172.148C92.7945 171.784 93.1856 171.442 93.7712 171.379C94.0625 171.35 94.3472 171.395 94.575 171.494Z" fill="#0C0C0C" stroke="#0C0C0C" stroke-width="0.925974" stroke-miterlimit="10"/>
<path d="M92.6584 176.712C93.1436 176.922 93.257 177.337 92.9142 177.637C92.5713 177.937 91.9032 178.007 91.4181 177.796C90.9329 177.585 90.8195 177.171 91.1623 176.871C91.5052 176.571 92.1733 176.501 92.6584 176.712Z" fill="#0C0C0C" stroke="#0C0C0C" stroke-width="0.925974" stroke-miterlimit="10"/>
<path d="M76.9074 178.376C77.3926 178.587 77.5061 179.002 77.1632 179.302C76.8204 179.602 76.1522 179.672 75.6671 179.461C75.182 179.25 75.0685 178.836 75.4113 178.536C75.7542 178.235 76.4223 178.166 76.9074 178.376Z" fill="#0C0C0C" stroke="#0C0C0C" stroke-width="0.925974" stroke-miterlimit="10"/>
<path d="M72.2979 173.848C72.522 173.948 72.6841 174.096 72.7357 174.279C72.8344 174.643 72.4433 174.985 71.8577 175.048C71.5663 175.077 71.2817 175.033 71.0583 174.936C70.8349 174.84 70.672 174.689 70.6204 174.505C70.5217 174.141 70.9129 173.8 71.4985 173.737C71.7898 173.707 72.0745 173.752 72.2979 173.848Z" fill="#0C0C0C" stroke="#0C0C0C" stroke-width="0.925974" stroke-miterlimit="10"/>
<path d="M74.2151 168.63C74.7002 168.841 74.8137 169.255 74.4708 169.556C74.128 169.856 73.4598 169.925 72.9747 169.715C72.4896 169.504 72.3761 169.09 72.719 168.789C73.0618 168.489 73.7299 168.419 74.2151 168.63Z" fill="#0C0C0C" stroke="#0C0C0C" stroke-width="0.925974" stroke-miterlimit="10"/>
<path d="M81.5361 165.778C81.7603 165.878 81.9224 166.025 81.974 166.209C82.0727 166.573 81.6815 166.914 81.096 166.977C80.8046 167.007 80.5199 166.962 80.2966 166.866C80.0732 166.77 79.9103 166.618 79.8587 166.435C79.76 166.071 80.1512 165.729 80.7367 165.666C81.0281 165.637 81.3128 165.682 81.5361 165.778Z" fill="#0C0C0C" stroke="#0C0C0C" stroke-width="0.925974" stroke-miterlimit="10"/>
<path d="M97.0417 176.452C97.2655 176.323 97.4916 176.082 97.6996 175.934L97.7191 175.918L97.7403 175.875C99.1916 173.294 98.3597 170.013 96.4114 167.912C91.8201 162.96 84.313 161.941 77.8919 162.745C74.0558 163.29 70.1002 165.209 67.9786 168.601C66.9093 170.293 66.5132 172.567 67.2933 174.424L67.3415 174.539C67.548 174.715 67.7509 174.893 67.9579 175.053L68.1826 174.859C68.0775 174.623 67.9674 174.399 67.8618 174.177L67.9151 174.299C67.9495 170.982 70.515 168.852 73.1903 167.503C76.3936 166.02 79.9349 164.982 83.5261 164.942C88.3381 164.932 94.4612 166.326 97.0643 170.758C97.4659 171.495 97.722 172.317 97.7738 173.165C97.8767 173.933 97.5781 175.151 97.4194 175.648L97.143 175.937C97.054 176.037 96.9502 176.121 96.856 176.214L97.0409 176.448L97.0417 176.452Z" fill="#0C0C0C"/>
<path d="M69.3668 164.037C73.4918 160.378 79.4516 159.595 84.7563 160.179C88.251 160.587 91.7564 161.516 94.7183 163.434C97.3659 165.119 99.6871 168.104 98.8131 171.266C98.3902 172.859 97.1638 174.356 95.7246 175.369C91.746 178.247 86.5439 178.866 81.7442 178.617C77.2126 178.356 71.0149 176.882 68.0519 173.231C65.6268 170.241 66.6368 166.462 69.3668 164.037ZM69.1218 163.754C63.5431 168.307 64.7902 174.883 70.3302 178.849C72.7567 180.605 75.667 181.641 78.5937 182.158C83.4489 183.009 88.534 182.397 93.0722 180.454C97.6953 178.55 102.643 174.132 101.505 168.615C100.382 163.425 95.1853 160.663 90.4854 159.457C83.5642 157.783 74.7034 159.285 69.1262 163.757L69.1218 163.754Z" fill="#0C0C0C"/>
<path d="M169.449 57.1468C169.921 57.3336 170.052 57.8624 169.737 58.3245C169.422 58.7867 168.788 59.0131 168.315 58.8225C167.842 58.632 167.712 58.1069 168.027 57.6448C168.342 57.1826 168.976 56.9562 169.449 57.1468Z" fill="#0C0C0C" stroke="#0C0C0C" stroke-width="0.925974" stroke-miterlimit="10"/>
<path d="M166.468 61.5668C166.941 61.7537 167.071 62.2825 166.756 62.7446C166.441 63.2067 165.807 63.4331 165.334 63.2426C164.861 63.0521 164.731 62.5269 165.046 62.0648C165.361 61.6027 165.995 61.3763 166.468 61.5668Z" fill="#0C0C0C" stroke="#0C0C0C" stroke-width="0.925974" stroke-miterlimit="10"/>
<path d="M171.764 59.7062C171.982 59.7923 172.149 59.9619 172.203 60.1943C172.315 60.6547 171.958 61.187 171.401 61.3814C171.125 61.4799 170.849 61.4753 170.631 61.3856C170.413 61.2959 170.247 61.1298 170.192 60.8975C170.08 60.4371 170.437 59.9047 170.994 59.7104C171.27 59.6119 171.546 59.6164 171.764 59.7062Z" fill="#0C0C0C" stroke="#0C0C0C" stroke-width="0.925974" stroke-miterlimit="10"/>
<path d="M170.975 63.3609C171.447 63.5478 171.578 64.0765 171.263 64.5387C170.948 65.0008 170.314 65.2272 169.841 65.0366C169.368 64.8461 169.238 64.321 169.553 63.8589C169.868 63.3968 170.502 63.1703 170.975 63.3609Z" fill="#0C0C0C" stroke="#0C0C0C" stroke-width="0.925974" stroke-miterlimit="10"/>
<path d="M167.546 65.9619C167.764 66.048 167.931 66.2177 167.985 66.4501C168.097 66.9104 167.74 67.4428 167.184 67.6371C166.907 67.7357 166.631 67.7311 166.413 67.6413C166.195 67.5516 166.029 67.3856 165.974 67.1532C165.862 66.6929 166.219 66.1605 166.776 65.9662C167.052 65.8676 167.328 65.8722 167.546 65.9619Z" fill="#0C0C0C" stroke="#0C0C0C" stroke-width="0.925974" stroke-miterlimit="10"/>
<path d="M163.484 65.9915C163.956 66.1784 164.087 66.7071 163.772 67.1693C163.457 67.6314 162.823 67.8578 162.35 67.6673C161.877 67.4767 161.747 66.9516 162.062 66.4895C162.377 66.0274 163.011 65.801 163.484 65.9915Z" fill="#0C0C0C" stroke="#0C0C0C" stroke-width="0.925974" stroke-miterlimit="10"/>
<path d="M161.171 63.4273C161.388 63.5134 161.551 63.6838 161.609 63.9118C161.721 64.3721 161.364 64.9045 160.807 65.0988C160.531 65.1974 160.255 65.1928 160.037 65.103C159.818 65.0133 159.656 64.8465 159.598 64.6185C159.486 64.1582 159.843 63.6258 160.4 63.4315C160.676 63.3329 160.952 63.3375 161.171 63.4273Z" fill="#0C0C0C" stroke="#0C0C0C" stroke-width="0.925974" stroke-miterlimit="10"/>
<path d="M161.958 59.7782C162.43 59.9651 162.561 60.4939 162.246 60.956C161.931 61.4181 161.297 61.6445 160.824 61.454C160.351 61.2635 160.22 60.7384 160.536 60.2762C160.851 59.8141 161.484 59.5877 161.958 59.7782Z" fill="#0C0C0C" stroke="#0C0C0C" stroke-width="0.925974" stroke-miterlimit="10"/>
<path d="M165.389 57.176C165.607 57.2621 165.77 57.4326 165.827 57.6605C165.939 58.1209 165.582 58.6532 165.026 58.8476C164.749 58.9461 164.473 58.9416 164.255 58.8518C164.037 58.7621 163.875 58.5953 163.817 58.3673C163.705 57.907 164.062 57.3746 164.619 57.1803C164.895 57.0817 165.171 57.0863 165.389 57.176Z" fill="#0C0C0C" stroke="#0C0C0C" stroke-width="0.925974" stroke-miterlimit="10"/>
<path d="M172.417 52.7411C172.89 52.928 173.021 53.4568 172.706 53.9189C172.39 54.381 171.757 54.6074 171.284 54.4169C170.81 54.2264 170.68 53.7012 170.995 53.2391C171.311 52.777 171.944 52.5506 172.417 52.7411Z" fill="#0C0C0C" stroke="#0C0C0C" stroke-width="0.925974" stroke-miterlimit="10"/>
<path d="M177.045 57.8533C177.262 57.9394 177.429 58.109 177.483 58.3414C177.596 58.8018 177.239 59.3341 176.682 59.5284C176.405 59.627 176.13 59.6224 175.911 59.5327C175.693 59.443 175.527 59.2769 175.472 59.0446C175.36 58.5842 175.717 58.0518 176.274 57.8575C176.55 57.759 176.826 57.7635 177.045 57.8533Z" fill="#0C0C0C" stroke="#0C0C0C" stroke-width="0.925974" stroke-miterlimit="10"/>
<path d="M175.466 65.1425C175.938 65.3294 176.069 65.8582 175.754 66.3203C175.439 66.7824 174.805 67.0088 174.332 66.8183C173.859 66.6278 173.729 66.1026 174.044 65.6405C174.359 65.1784 174.994 64.9556 175.466 65.1425Z" fill="#0C0C0C" stroke="#0C0C0C" stroke-width="0.925974" stroke-miterlimit="10"/>
<path d="M168.623 70.3386C168.84 70.4247 169.007 70.5944 169.062 70.8268C169.174 71.2871 168.816 71.8158 168.26 72.0138C167.984 72.1124 167.708 72.1078 167.489 72.0181C167.271 71.9283 167.105 71.7623 167.051 71.5299C166.938 71.0659 167.296 70.5372 167.852 70.3429C168.129 70.2443 168.405 70.2489 168.623 70.3386Z" fill="#0C0C0C" stroke="#0C0C0C" stroke-width="0.925974" stroke-miterlimit="10"/>
<path d="M160.514 70.3935C160.986 70.5803 161.117 71.1091 160.802 71.5712C160.487 72.0334 159.853 72.2598 159.38 72.0692C158.907 71.8787 158.777 71.3536 159.092 70.8915C159.407 70.4293 160.041 70.2029 160.514 70.3935Z" fill="#0C0C0C" stroke="#0C0C0C" stroke-width="0.925974" stroke-miterlimit="10"/>
<path d="M155.891 65.281C156.109 65.3671 156.272 65.5376 156.329 65.7655C156.441 66.2259 156.084 66.7546 155.527 66.9525C155.251 67.0511 154.975 67.0465 154.757 66.9568C154.539 66.8671 154.377 66.7002 154.319 66.4723C154.206 66.0083 154.564 65.4796 155.121 65.2853C155.397 65.1867 155.673 65.1913 155.891 65.281Z" fill="#0C0C0C" stroke="#0C0C0C" stroke-width="0.925974" stroke-miterlimit="10"/>
<path d="M157.466 57.9922C157.939 58.1791 158.069 58.7079 157.754 59.17C157.439 59.6321 156.805 59.8585 156.332 59.668C155.859 59.4775 155.729 58.9523 156.044 58.4902C156.359 58.0281 156.993 57.8017 157.466 57.9922Z" fill="#0C0C0C" stroke="#0C0C0C" stroke-width="0.925974" stroke-miterlimit="10"/>
<path d="M164.314 52.7993C164.531 52.8854 164.695 53.0559 164.752 53.2838C164.864 53.7442 164.507 54.2765 163.95 54.4708C163.674 54.5694 163.398 54.5648 163.18 54.4751C162.962 54.3854 162.8 54.2185 162.742 53.9906C162.63 53.5303 162.987 52.9979 163.544 52.8036C163.82 52.705 164.096 52.7096 164.314 52.7993Z" fill="#0C0C0C" stroke="#0C0C0C" stroke-width="0.925974" stroke-miterlimit="10"/>
<path d="M180.903 63.1222L181.529 62.0232L181.54 62.0054C182.092 59.5368 181.947 56.9153 180.866 54.59C177.379 47.129 167.339 46.2052 160.529 49.3205C155.762 51.367 151.385 55.0269 149.672 60.1126C148.351 63.8832 148.757 68.4825 151.413 71.5822C152.247 72.6061 153.293 73.4082 154.399 74.0293L154.473 74.0704C154.885 74.1406 155.297 74.2071 155.698 74.2607L155.776 73.9725C155.418 73.7836 155.066 73.6048 154.715 73.4333L154.797 73.4765C154.401 73.0249 153.98 72.6205 153.642 72.1408C148.209 64.8039 154.235 55.0872 161.523 51.4893C167.454 48.4286 176.36 48.6308 179.981 55.0315C181.132 56.9942 181.438 59.7372 181.159 61.852L180.646 62.9797L180.907 63.125L180.903 63.1222Z" fill="#0C0C0C"/>
<path d="M149.386 52.5736C153.149 47.1199 159.55 43.5519 166.149 43.2086C172.829 42.771 179.919 46.6459 180.334 53.5568C180.537 56.3872 179.603 59.2218 178.101 61.6079C177.822 62.0087 177.533 62.3965 177.275 62.8042C176.282 64.4796 174.986 66.0266 173.478 67.3682C167.549 72.7457 157.462 75.4513 150.642 70.1546C145.186 65.7165 145.639 58.0278 149.386 52.5736ZM148.366 51.8881C144.239 57.826 143.788 66.3084 149.53 71.3903C154.94 76.1936 163.112 76.098 169.473 73.3939C175.331 70.9372 180.395 66.1457 182.481 60.0739C184.511 54.308 182.909 47.8705 177.765 44.3375C168.179 37.9505 154.523 42.9102 148.367 51.8918L148.366 51.8881Z" fill="#0C0C0C"/>
<path d="M177.789 322.622C171.267 324.048 164.824 319.917 163.398 313.395C161.972 306.873 166.103 300.43 172.625 299.004C179.147 297.578 185.59 301.709 187.016 308.231C188.442 314.753 184.311 321.196 177.789 322.622Z" fill="white"/>
<path d="M163.217 313.435C164.753 320.513 170.458 326.248 178.122 324.141C186.347 321.583 190.786 310.56 186.357 303.053C182.45 296.532 173.296 294.635 167.27 299.408C163.051 302.671 162.092 308.538 163.217 313.435ZM163.581 313.355C162.007 305.965 170.128 299.753 176.997 300.839C181.137 301.385 184.625 304.524 186.022 308.449C187.593 312.736 185.683 317.884 181.525 319.889C175.418 322.915 165.182 320.851 163.581 313.355Z" fill="#0C0C0C"/>
<path d="M176.482 361.418L139.724 287.13C139.626 286.922 139.373 286.832 139.166 286.931C138.962 287.029 138.876 287.266 138.959 287.473L171.379 363.71C172.981 367.124 177.972 364.933 176.482 361.414L176.482 361.418Z" fill="#0C0C0C"/>
<path d="M123.576 221.884C125.941 223.902 128.488 225.876 130.63 228.111C134.982 232.492 138.384 237.769 140.876 243.405C147.69 257.579 154.994 272.265 162.864 285.857L163.903 285.355C161.564 279.407 159.029 273.555 156.424 267.737C152.849 259.677 148.114 249.756 144.211 241.79C143.85 241.064 142.935 239.236 142.566 238.542C140.032 233.816 136.628 229.544 132.613 226.009C130.178 223.861 127.432 222.075 124.714 220.348L123.577 221.887L123.576 221.884Z" fill="#0C0C0C"/>
<path d="M116.13 118.269L115.642 118.36C115.642 118.36 115.611 118.375 115.602 118.384L115.092 118.969C115.046 119.021 115.068 119.104 115.134 119.128L119.203 120.781C120.557 121.336 121.919 121.871 123.278 122.413C123.416 122.467 123.567 122.426 123.658 122.319C123.678 122.322 129.275 115.688 129.293 115.684C129.547 115.396 129.416 114.917 129.049 114.795C126.323 113.727 123.525 112.842 120.695 112.086C120.612 112.055 120.517 112.072 120.468 112.147C120.239 112.495 120.019 112.849 119.799 113.206C119.782 113.233 119.79 113.269 119.816 113.282C119.838 113.297 119.867 113.29 119.883 113.275C120.186 112.988 120.485 112.697 120.775 112.397L120.548 112.458C123.185 113.729 125.885 114.884 128.648 115.856L128.403 114.967L123.123 121.863L123.512 121.755C121.112 120.924 117.641 119.752 115.195 118.935L115.237 119.094L115.701 118.473L115.661 118.497L116.14 118.37C116.213 118.354 116.182 118.246 116.117 118.26L116.13 118.269Z" fill="#0C0C0C"/>
<path d="M118.77 104.704C116.082 104.528 114.692 106.515 115.312 109.037L115.316 109.036L115.498 108.996L115.48 109.073C116.719 107.737 117.87 106.313 118.914 104.821L118.77 104.704Z" fill="#0C0C0C"/>
<path d="M82.9403 136.754C81.8015 137.953 79.5627 140.356 78.4409 141.563C77.2872 142.747 75.0097 145.112 73.864 146.297L74.0852 146.104L62.4442 154.674C60.5174 156.111 55.6125 159.764 53.7558 161.155C53.2712 161.505 52.043 162.453 51.5766 162.8C50.1599 163.88 49.0158 165.318 48.264 166.925C47.4947 168.541 47.1828 170.327 47.2355 172.087C47.2434 172.612 47.3471 174.238 47.3614 174.793C47.6241 180.813 48.0227 186.827 48.406 192.84C48.5372 194.243 48.5556 197.033 48.8757 198.41C49.7903 201.406 51.5643 204.106 53.3581 206.6C57.7014 212.496 63.232 217.414 69.3183 221.451C72.3685 223.475 75.6003 225.266 78.9868 226.663C91.5655 231.758 106.377 232.207 118.789 226.306C127.826 222.119 134.894 215.019 141.908 208.179C155.668 194.495 167.834 179.332 178.844 163.494L177.825 162.713C164.029 179.271 149.821 195.724 134 210.37C125.215 218.838 116.42 225.407 103.993 227.117C95.3844 228.289 86.0955 227.537 77.952 224.393C68.6499 220.646 60.1551 214.097 54.485 205.8C52.8877 203.366 51.404 200.824 50.7064 198.018C50.5206 196.993 50.6764 193.882 50.6361 192.772C50.6681 185.847 50.6787 178.912 50.5514 171.992C50.5453 169.03 51.9511 166.642 54.4035 165.06L55.8667 163.999C57.7196 162.644 62.703 159 64.6143 157.597L76.2186 148.982L76.35 148.884L76.4361 148.789C77.5603 147.593 79.8528 145.122 80.9746 143.914C82.4616 142.264 83.9293 140.596 85.3889 138.925L82.9484 136.756L82.9403 136.754Z" fill="#0C0C0C"/>
<path d="M175.117 84.9035C175.347 86.323 175.539 87.7432 175.707 89.1726C175.874 90.5983 176.037 92.0285 176.16 93.4602C176.283 94.8955 176.378 96.3291 176.475 97.7663C176.572 99.2035 176.62 100.647 176.695 102.09L177.063 100.314L176.497 101.079C176.403 101.207 176.304 101.331 176.215 101.465C176.165 101.621 176.105 101.768 176.047 101.918L175.361 103.721L173.985 107.332L176.767 109.037L179.36 106.176L180.658 104.743C180.765 104.624 180.873 104.505 180.989 104.388C181.065 104.249 181.133 104.105 181.205 103.963L181.629 103.11L182.162 102.039L181.997 101.335C181.663 99.9304 181.304 98.5315 180.996 97.1251C180.689 95.7187 180.378 94.3131 180.092 92.9019C179.806 91.4907 179.565 90.0736 179.325 88.6602C179.084 87.2431 178.872 85.8232 178.694 84.3962L175.125 84.9056L175.117 84.9035Z" fill="#0C0C0C"/>
<path d="M121.178 83.3363L135.667 88.6474L150.149 93.9791L179.08 104.737C179.89 105.038 180.778 104.748 181.266 104.084L181.307 104.029C184.323 99.9223 187.288 95.7806 190.199 91.5975C191.668 89.5163 193.101 87.4087 194.552 85.3161L198.859 78.999C201.711 74.7716 204.55 70.5393 207.343 66.2748C210.149 62.0153 212.902 57.7216 215.606 53.393L215.211 53.1089C211.966 57.0522 208.773 61.0296 205.627 65.0428C202.472 69.0504 199.365 73.0892 196.265 77.1382L191.649 83.2326C190.126 85.276 188.589 87.3072 187.079 89.3591C184.041 93.4479 181.058 97.5782 178.125 101.747L180.348 101.039L150.938 91.6687L136.247 86.9362L121.563 82.1831L121.169 83.3306L121.178 83.3363Z" fill="#0C0C0C"/>
<path d="M48.1189 170.977C48.1375 175.497 52.031 178.287 55.311 180.647C58.5877 182.939 62 184.927 65.3835 186.974C70.096 189.704 74.8442 192.72 80.1337 194.335C81.6263 194.753 83.3127 194.888 84.8146 194.808C86.8857 194.729 88.9549 194.624 90.9743 193.908C91.8644 193.648 92.9628 192.893 93.7707 192.415L98.8189 189.329C105.451 185.211 122.697 174.862 129.446 170.515C139.777 159.689 149.622 148.37 158.689 136.461C161.706 132.488 164.701 128.496 167.657 124.483L165.722 123.005C162.504 126.793 159.33 130.61 156.178 134.441C146.85 145.853 136.775 157.169 126.895 168.137C119.798 172.587 100.936 185.098 92.57 190.52L91.3407 191.323C90.2189 192.042 88.9436 192.355 87.5857 192.553C85.2979 192.828 82.8553 193.076 80.61 192.498C79.2306 192.143 77.9111 191.626 76.5919 191.04C71.2902 188.618 66.1707 185.545 61.1482 182.532C57.6795 180.305 50.9727 176.625 49.9379 172.591C49.8184 172.044 49.724 171.473 49.7126 170.914L48.1234 170.979L48.1189 170.977Z" fill="#0C0C0C"/>
<path d="M139.348 287.589C157.236 289.24 175.564 286.565 192.144 279.596C199.312 276.639 206.299 273.202 213.018 269.324C219.637 265.166 225.664 259.992 230.591 253.872C233.054 250.714 235.606 247.35 236.751 243.385C237.247 241.501 236.983 239.876 235.219 238.772C232.524 237.289 229.262 237.861 226.418 238.315C225.438 238.51 225.596 239.934 226.57 239.934C227.82 239.924 229.064 239.954 230.257 240.087C231.415 240.23 232.714 240.446 233.587 241.141C233.64 241.206 233.723 241.256 233.752 241.315C233.78 241.378 233.847 241.42 233.848 241.477C233.863 241.509 233.873 241.541 233.891 241.571C233.867 241.565 233.85 241.538 233.849 241.515L233.837 241.533C233.794 241.703 233.776 241.879 233.697 242.079C230.335 249.942 217.079 259.594 209.948 264.693C205.983 267.686 201.77 270.352 197.336 272.596C190.67 275.982 183.588 278.493 176.413 280.565C169.195 282.651 161.877 284.259 154.417 285.321C149.44 286.043 144.414 286.508 139.352 286.875C139.156 286.887 139.007 287.061 139.023 287.256C139.035 287.433 139.175 287.57 139.347 287.586L139.348 287.589Z" fill="#0C0C0C"/>
<path d="M153.571 266.548C149.933 269.867 143.474 275.597 143.189 280.805C143.191 286.314 150.477 286.462 154.489 286.459C155.876 286.449 157.258 286.361 158.63 286.263C155.752 285.984 152.841 285.609 150.083 284.765C148.657 284.268 146.772 283.607 146.075 282.236C145.505 280.784 146.744 279.326 147.646 278.212C150.252 275.325 153.579 273.132 156.905 271.041L153.568 266.552L153.571 266.548Z" fill="#0C0C0C"/>
<path d="M165.982 208.961C166.105 193.182 171.164 177.401 180.319 164.599L180.642 164.139L180.711 163.391C181.253 156.248 181.34 148.948 181.369 141.78C181.379 141.075 181.352 140.291 181.283 139.588C180.873 135.2 178.833 131.003 175.631 127.989C173.542 125.853 167.963 123.019 165.438 121.406C161.318 118.94 156.977 116.285 152.901 113.744C152.121 113.269 152.197 111.974 153.024 111.583L153.093 111.549L153.197 111.503C157.955 109.409 163.149 108.232 168.35 108.358C174.692 108.468 180.916 110.657 186.078 114.289C195.442 120.832 203.674 134.001 203.704 145.578C203.756 150.648 203.292 155.88 202.933 160.994C202.554 165.544 202.119 172.041 201.602 176.522C201.244 180.017 200.536 184.024 201.124 187.518C201.524 190.153 202.374 192.746 203.471 195.194C204.023 196.517 205.24 199.324 205.808 200.628C211.469 213.737 218.283 226.884 225.106 239.441C226.747 242.511 229.037 246.748 230.736 249.789L232.112 249.149C225.321 232.095 217.472 215.612 210.809 198.549L207.991 191.301C207.46 189.851 207.08 188.236 206.868 186.675C206.626 184.83 206.759 182.927 207.033 181.091C207.532 177.153 207.931 173.202 208.219 169.245C208.589 164.056 208.853 158.665 209.055 153.463C209.205 148.07 209.353 142.269 207.664 137.027C204.36 126.54 197.22 117.286 187.756 111.678C177.078 105.236 163.673 105.006 152.401 109.975C150.278 110.844 149.969 113.935 151.853 115.237C152.331 115.556 153.815 116.564 154.328 116.902C157.598 119.093 160.83 121.318 164.053 123.56C166.164 125.145 171.53 128.454 173.162 130.418C175.491 132.986 176.851 136.449 176.937 139.878C176.951 140.432 176.927 141.056 176.881 141.612C176.6 146.075 176.209 150.868 176.065 155.324C175.999 157.939 175.926 160.554 175.914 163.172L176.306 161.964C167.724 176.034 163.614 192.597 164.646 208.994L165.985 208.957L165.982 208.961Z" fill="#0C0C0C"/>
<path d="M90.0173 140.219C88.6222 141.486 87.2332 142.851 85.8897 144.18C88.454 145.501 91.6951 147.072 94.3041 148.318C99.9111 150.914 106.07 153.66 111.795 155.974C117.369 158.279 123.386 160.64 129.022 162.721C134.78 155.686 140.604 148.19 145.95 140.828C150.883 134.019 155.917 126.818 160.199 119.567L159.94 119.357L151.869 129.222C146.809 135.464 133.036 152.46 127.792 158.928L128.166 158.823C116.351 154.462 98.948 148.028 87.2725 143.782L87.3593 144.091L90.28 140.425L90.0201 140.215L90.0173 140.219Z" fill="#0C0C0C"/>
<path d="M160.875 108.046C153.461 102.352 144.705 98.9217 135.786 96.4892C132.425 95.6092 128.93 95.0257 125.457 94.7542C125.784 95.4082 126.137 96.1364 126.517 96.7558L126.809 96.6957L126.565 95.3672L126.34 95.5614C129.189 96.6832 132.054 97.7556 134.917 98.8362C141.102 101.195 150.248 104.543 156.447 106.792L160.776 108.323L160.879 108.045L160.875 108.046Z" fill="#0C0C0C"/>
<path d="M117.629 110.912L121.752 105.063L121.02 104.475L116.174 109.742L117.629 110.912Z" fill="#0C0C0C"/>
<path d="M103.519 128.394L110.396 119.808L109.005 118.685L102.064 127.223L103.519 128.394Z" fill="#0C0C0C"/>
<path d="M89.5582 145.019L92.9611 141.48L91.5063 140.31L88.7699 144.382L89.5582 145.019Z" fill="#0C0C0C"/>
<path d="M96.5758 122.933C97.7 121.493 98.826 120.025 99.9492 118.527" stroke="#0C0C0C" stroke-width="4.62987" stroke-miterlimit="10"/>
<path d="M110.716 139.232L113.754 135.334C114.007 135.012 113.96 134.549 113.654 134.283L113.404 134.067C112.509 133.415 111.245 133.291 110.193 133.001C109.075 132.757 107.958 132.52 106.82 132.364C106.698 132.345 106.633 132.52 106.739 132.585C108.187 133.501 109.689 134.326 111.229 135.069C111.753 135.283 112.24 135.589 112.843 135.587L112.493 134.319L109.326 138.116C108.588 139.052 109.952 140.159 110.713 139.237L110.716 139.232Z" fill="#0C0C0C"/>
<path d="M98.6255 141.842C100.908 142.66 103.082 143.769 105.346 144.64C105.487 144.693 105.641 144.645 105.731 144.533C106.718 143.409 107.742 142.311 108.748 141.201C108.968 140.954 108.951 140.576 108.707 140.351C108.444 140.111 108.019 140.158 107.815 140.447C106.944 141.664 106.087 142.898 105.198 144.104L105.583 143.997C103.301 143.182 100.93 142.601 98.6659 141.73C98.6033 141.705 98.5577 141.811 98.6276 141.833L98.6255 141.842Z" fill="#0C0C0C"/>
<path d="M201.172 128.738C209.417 117.608 216.608 105.713 222.601 93.2241C223.821 90.617 225.025 88.0555 226.032 85.3425C228.297 77.9791 230.773 68.756 227.647 61.094C226.189 57.9846 223.504 55.6587 220.708 53.8191C220.364 53.5926 219.836 53.2728 219.562 53.119C217.376 52.0088 213.118 49.9926 210.164 48.7221C207.827 47.7096 205.464 46.7299 203.073 45.8362C202.278 45.533 201.47 45.2438 200.654 44.9716L200.379 45.4594C205.243 49.6301 212.805 54.7797 216.883 57.4347C218.605 58.7456 220.3 60.2992 221.53 62.0497C221.825 62.4702 222.121 62.9895 222.329 63.4517C224.379 68.8103 223.587 76.6953 222.303 82.2751C222.127 83.0427 221.934 83.837 221.714 84.5952C218.735 93.4241 215.106 102.09 210.441 110.176C207.061 116.089 203.268 121.77 199.032 127.102L201.177 128.744L201.172 128.738Z" fill="#0C0C0C"/>
</svg>
