<svg width="42" height="40" viewBox="0 0 42 40" fill="none" xmlns="http://www.w3.org/2000/svg">
<g clip-path="url(#clip0_2_6)">
<path d="M24.1753 4.24347C26.442 4.24347 28.6058 4.67202 30.5994 5.44719C27.3622 2.09023 22.8288 0 17.808 0C7.97242 0 -0.00195312 8.00378 -0.00195312 17.8772C-0.00195312 25.4756 4.72259 31.9626 11.3819 34.5507C8.27912 31.3324 6.36536 26.9524 6.36536 22.1207C6.36536 12.2473 14.3397 4.24347 24.1753 4.24347Z" fill="#0C0C0C"/>
<path d="M30.6022 5.44727C33.705 8.66558 35.6188 13.0456 35.6188 17.8773C35.6188 27.7507 27.6444 35.7545 17.8088 35.7545C15.5421 35.7545 13.3784 35.3259 11.3848 34.5508C14.622 37.9077 19.1554 39.998 24.1782 39.998C34.0138 39.998 41.9882 31.9942 41.9882 22.1208C41.9882 14.5224 37.2637 8.03536 30.6043 5.44727H30.6022Z" fill="#0C0C0C"/>
</g>
<defs>
<clipPath id="clip0_2_6">
<rect width="41.9894" height="39.9979" fill="white" transform="translate(-0.00195312)"/>
</clipPath>
</defs>
</svg>
