<svg width="193" height="40" viewBox="0 0 193 40" fill="none" xmlns="http://www.w3.org/2000/svg">
<g clip-path="url(#clip0_25_350)">
<g clip-path="url(#clip1_25_350)">
<g clip-path="url(#clip2_25_350)">
<path d="M24.185 4.24521C26.4523 4.24521 28.6154 4.67335 30.6109 5.44774C27.3719 2.08958 22.841 0.000976562 17.8187 0.000976562C7.9825 0.000976562 0.0078125 8.00544 0.0078125 17.8789C0.0078125 25.4775 4.73231 31.963 11.3928 34.5542C8.29151 31.3375 6.37788 26.9556 6.37788 22.1231C6.37788 12.2497 14.3526 4.24521 24.1888 4.24521H24.185Z" fill="#0C0C0C"/>
<path d="M30.6106 5.44775C33.7118 8.66443 35.6255 13.0464 35.6255 17.8789C35.6255 27.7523 27.6508 35.7568 17.8146 35.7568C15.5473 35.7568 13.3842 35.3286 11.3887 34.5542C14.6277 37.9124 19.1586 40.001 24.1809 40.001C34.0171 40.001 41.9918 31.9965 41.9918 22.1231C41.9918 14.5244 37.2673 8.03897 30.6068 5.44775H30.6106Z" fill="#0C0C0C"/>
</g>
<path d="M58.9094 28.5914C56.3317 28.5981 54.3303 28.0612 52.9052 26.9804C51.4801 25.8819 50.7293 24.3195 50.6529 22.293L54.4396 22.2831C54.567 23.4205 54.9691 24.2372 55.646 24.7333C56.3406 25.2292 57.3724 25.4754 58.7413 25.4718C59.8257 25.469 60.7141 25.2711 61.4064 24.8782C62.0987 24.4675 62.4437 23.8443 62.4415 23.0088C62.4407 22.7066 62.3956 22.44 62.3061 22.2091C62.2343 21.9604 62.0738 21.7475 61.8244 21.5704C61.575 21.3755 61.3613 21.2249 61.1832 21.1187C61.0051 20.9948 60.6759 20.8712 60.1956 20.748C59.7152 20.607 59.3505 20.5102 59.1015 20.4575C58.8524 20.3871 58.3899 20.2727 57.7139 20.1145C56.8956 19.9211 56.2196 19.754 55.6859 19.6131C55.17 19.4723 54.5916 19.2516 53.9509 18.951C53.3278 18.6504 52.8292 18.3228 52.4549 17.9683C52.0984 17.5959 51.7949 17.1166 51.5445 16.5306C51.294 15.9268 51.1678 15.2427 51.1658 14.4783C51.161 12.6472 51.824 11.241 53.1548 10.2597C54.5033 9.26064 56.2708 8.75823 58.4575 8.75251C60.6264 8.74683 62.3611 9.25784 63.6615 10.2856C64.962 11.3133 65.6858 12.778 65.833 14.6799L62.1264 14.6896C62.0173 13.7654 61.6243 13.0553 60.9475 12.5593C60.2884 12.0633 59.4522 11.8166 58.4389 11.8192C57.39 11.822 56.555 12.0286 55.9338 12.4391C55.3127 12.8496 55.003 13.3927 55.0047 14.0682C55.0066 14.7971 55.3103 15.3297 55.9156 15.6659C56.5387 16.002 57.624 16.3369 59.1716 16.6707C60.0965 16.8638 60.8526 17.0485 61.4397 17.2247C62.0268 17.3832 62.6585 17.6215 63.3349 17.9398C64.029 18.2402 64.5632 18.5766 64.9376 18.9489C65.3296 19.3212 65.6509 19.8182 65.9015 20.4397C66.1697 21.0435 66.3049 21.7453 66.307 22.5453C66.3119 24.4298 65.6313 25.9071 64.2652 26.9774C62.8991 28.0476 61.1139 28.5856 58.9094 28.5914ZM79.96 26.4563C78.6302 27.8287 76.9165 28.5176 74.8187 28.5231C72.7209 28.5286 71.0036 27.8486 69.6667 26.4832C68.3297 25.1001 67.6585 23.3774 67.6531 21.3151C67.6477 19.2529 68.3099 17.5356 69.6397 16.1633C70.9693 14.7731 72.6831 14.0753 74.7809 14.0698C76.8786 14.0643 78.596 14.7531 79.933 16.1363C81.2699 17.5017 81.941 19.2155 81.9464 21.2777C81.9518 23.3399 81.2897 25.0661 79.96 26.4563ZM74.8114 25.7498C75.8959 25.7469 76.7393 25.3447 77.3416 24.5431C77.9617 23.7237 78.27 22.6385 78.2664 21.2874C78.2629 19.9363 77.9489 18.8526 77.3246 18.0365C76.718 17.2203 75.8725 16.8136 74.788 16.8164C73.6858 16.8193 72.8336 17.2305 72.2313 18.0498C71.6289 18.8514 71.3295 19.9366 71.3331 21.3055C71.3367 22.6566 71.6417 23.7403 72.2483 24.5565C72.8548 25.3549 73.7092 25.7526 74.8114 25.7498ZM95.7834 28.0682L92.2901 28.0773L92.2859 26.4773L92.2059 26.4775C91.7099 27.1544 91.1601 27.6536 90.5565 27.9752C89.9707 28.2967 89.2155 28.4587 88.2911 28.4611C86.7978 28.465 85.6321 28.0237 84.7943 27.137C83.9564 26.2503 83.5355 25.0514 83.5315 23.5402L83.5076 14.4203L87.1076 14.4109L87.1299 22.9175C87.1342 24.5708 87.8919 25.3955 89.403 25.3916C90.2386 25.3894 90.9045 25.1032 91.4008 24.533C91.8971 23.9628 92.144 23.2155 92.1416 22.291L92.1209 14.3977L95.7476 14.3882L95.7834 28.0682ZM97.2997 16.7842L97.2934 14.3842L99.1868 14.3792L99.1756 10.1126L102.722 10.1033L102.733 14.3699L105.08 14.3638L105.086 16.7638L102.74 16.7699L102.759 24.0232C102.761 24.9299 103.216 25.3821 104.122 25.3797L105.189 25.3502L105.196 28.0169C104.645 28.0539 103.889 28.0736 102.929 28.0761C101.88 28.0789 101 27.8323 100.287 27.3364C99.5749 26.8227 99.2171 25.9792 99.214 24.8059L99.193 16.7792L97.2997 16.7842ZM110.56 8.96277L110.579 16.1361L110.659 16.1359C111.172 15.3879 111.731 14.8442 112.335 14.5048C112.956 14.1476 113.72 13.9678 114.627 13.9655C116.031 13.9618 117.17 14.4388 118.044 15.3965C118.917 16.3365 119.356 17.562 119.36 19.0731L119.383 28.0064L115.757 28.0159L115.735 19.6159C115.733 18.8693 115.518 18.2654 115.09 17.8043C114.68 17.3431 114.101 17.1135 113.355 17.1155C112.555 17.1176 111.889 17.4127 111.357 18.0007C110.843 18.5887 110.587 19.345 110.59 20.2694L110.61 28.0294L106.983 28.0389L106.933 8.97226L110.56 8.96277ZM134.739 28.3662C132.054 28.3732 129.848 27.4546 128.118 25.6102C126.407 23.748 125.547 21.3858 125.54 18.5236C125.532 15.6436 126.362 13.2592 128.028 11.3704C129.694 9.48157 131.905 8.53355 134.66 8.52634C136.936 8.52038 138.76 9.12005 140.132 10.3254C141.521 11.5128 142.326 13.0485 142.544 14.9324L138.704 14.9424C138.523 13.9651 138.077 13.193 137.364 12.6259C136.67 12.0589 135.771 11.7768 134.669 11.7797C132.98 11.7841 131.693 12.4097 130.807 13.6564C129.921 14.9032 129.481 16.5221 129.486 18.5133C129.492 20.4866 129.967 22.0942 130.912 23.3362C131.876 24.5781 133.148 25.197 134.731 25.1929C135.851 25.19 136.783 24.8853 137.528 24.2789C138.273 23.6547 138.707 22.8358 138.828 21.8221L142.615 21.8122C142.513 23.6081 141.815 25.1121 140.52 26.3244C139.084 27.6793 137.157 28.3599 134.739 28.3662ZM144.327 27.9411L144.291 14.2611L147.918 14.2517L147.954 27.9316L144.327 27.9411ZM144.286 12.1278L144.277 8.8745L147.904 8.865L147.912 12.1183L144.286 12.1278ZM153.748 14.2364L153.754 16.423L153.834 16.4228C154.258 15.6217 154.728 15.0338 155.242 14.6591C155.757 14.2667 156.405 14.0694 157.188 14.0674C157.561 14.0664 157.845 14.1012 158.041 14.1718L158.05 17.3451L157.97 17.3453C156.743 17.2241 155.757 17.4934 155.012 18.1531C154.267 18.8128 153.896 19.8449 153.9 21.2494L153.917 27.916L150.291 27.9255L150.255 14.2455L153.748 14.2364ZM165.597 28.2854C163.481 28.291 161.781 27.611 160.498 26.2454C159.214 24.8799 158.57 23.1571 158.564 21.0771C158.559 18.9971 159.177 17.2711 160.417 15.8989C161.676 14.5267 163.328 13.838 165.372 13.8326C167.096 13.8281 168.502 14.2778 169.589 15.1816C170.676 16.0854 171.346 17.3014 171.598 18.8297L168.052 18.839C167.926 18.2171 167.64 17.7111 167.194 17.3212C166.749 16.9313 166.197 16.7371 165.54 16.7389C164.473 16.7417 163.656 17.126 163.089 17.8919C162.522 18.6579 162.241 19.7164 162.244 21.0675C162.248 22.4008 162.526 23.4579 163.079 24.2387C163.632 25.0017 164.442 25.3818 165.509 25.379C167.091 25.3748 168.005 24.5991 168.249 23.0518L171.743 23.0426C171.622 24.5541 171.012 25.809 169.913 26.8074C168.813 27.7881 167.374 28.2808 165.597 28.2854ZM173.391 27.865L173.341 8.79841L176.967 8.78891L177.017 27.8555L173.391 27.865ZM185.833 28.2324C183.628 28.2382 181.893 27.5672 180.627 26.2194C179.362 24.8538 178.726 23.1133 178.72 20.9977C178.715 18.9533 179.342 17.245 180.6 15.8728C181.859 14.4828 183.475 13.7852 185.448 13.7801C187.599 13.7744 189.263 14.5167 190.441 16.007C191.618 17.4973 192.21 19.4957 192.216 22.0024L182.296 22.0283C182.442 23.1124 182.808 23.9559 183.396 24.5588C183.985 25.1439 184.785 25.4352 185.799 25.4325C187.132 25.429 188.011 24.8667 188.434 23.7456L192.008 23.7363C191.744 25.017 191.072 26.0854 189.989 26.9416C188.907 27.7977 187.522 28.228 185.833 28.2324ZM185.509 16.5799C183.749 16.5845 182.694 17.5651 182.343 19.5215L188.423 19.5056C188.368 18.6347 188.072 17.9332 187.538 17.4013C187.003 16.8516 186.327 16.5778 185.509 16.5799Z" fill="#0C0C0C"/>
</g>
</g>
<defs>
<clipPath id="clip0_25_350">
<rect width="193" height="40" fill="white"/>
</clipPath>
<clipPath id="clip1_25_350">
<rect width="193.067" height="40" fill="white" transform="translate(0.0078125 0.000976562)"/>
</clipPath>
<clipPath id="clip2_25_350">
<rect width="41.9842" height="40" fill="white" transform="translate(0.0078125 0.000976562)"/>
</clipPath>
</defs>
</svg>
