<svg width="200" height="200" viewBox="0 0 200 200" fill="none" xmlns="http://www.w3.org/2000/svg">
<path d="M70.6961 56.6809C70.6961 63.1698 68.6812 67.555 64.6664 69.8513C60.6368 72.1476 55.8072 71.6587 50.1627 68.3994C44.5183 65.1402 39.6738 60.0289 35.659 53.0956C31.6294 46.1622 29.6294 39.4513 29.6294 32.9772C29.6294 26.5031 31.6294 22.103 35.659 19.8067L36.7109 19.2735C40.5035 17.6142 45.0072 18.2807 50.1627 21.2585C55.0516 24.0733 59.3183 28.2807 62.9775 33.8511C63.5553 34.7252 64.1183 35.629 64.6664 36.5624C65.5405 38.0587 66.3109 39.5402 66.9775 41.0068C69.4516 46.3698 70.6961 51.5994 70.6961 56.6809Z" stroke="#B4C1FF" stroke-width="3" stroke-linecap="round" stroke-linejoin="round"/>
<path d="M162.237 180.459L162.459 180.843L169.644 176.756L162.237 180.459Z" stroke="#B4C1FF" stroke-width="3" stroke-linecap="round" stroke-linejoin="round"/>
<path d="M70.6961 121.495C70.6961 127.984 68.6812 132.37 64.6664 134.651C60.6368 136.947 55.8072 136.473 50.1627 133.199C44.5183 129.94 39.6738 124.844 35.659 117.91C31.6294 110.977 29.6294 104.266 29.6294 97.777C29.6294 91.2881 31.6294 86.9177 35.659 84.6214L36.6072 84.1475C40.4294 82.4142 44.9479 83.0659 50.1627 86.0733C55.0368 88.8881 59.3035 93.0659 62.9627 98.6214C63.5553 99.4955 64.1183 100.414 64.6664 101.362C65.5405 102.859 66.3109 104.355 66.9924 105.836C69.4516 111.199 70.6961 116.414 70.6961 121.495Z" stroke="#B4C1FF" stroke-width="3" stroke-linecap="round" stroke-linejoin="round"/>
<path d="M127.185 89.2882C127.185 95.7771 125.171 100.162 121.141 102.459C117.126 104.755 112.282 104.266 106.637 101.007C103.378 99.1254 100.4 96.6363 97.6744 93.5252C95.6892 91.2585 93.8373 88.6511 92.1336 85.703C90.7707 83.3622 89.6447 81.0363 88.7559 78.74C86.9781 74.2511 86.104 69.8659 86.104 65.5845C86.104 62.903 86.4447 60.5771 87.141 58.6215C87.4077 57.8215 87.7336 57.0956 88.1336 56.4289C89.1114 54.7252 90.4299 53.3919 92.1336 52.4141L93.0818 51.9402C94.6966 51.2142 96.4299 50.903 98.2966 51.0363C100.845 51.1845 103.615 52.1326 106.637 53.8659C111.511 56.6808 115.793 60.8882 119.452 66.4437C120.03 67.3178 120.593 68.2215 121.141 69.1697C122.015 70.666 122.785 72.1474 123.452 73.6141C125.941 78.9771 127.185 84.2067 127.185 89.2882Z" stroke="#B4C1FF" stroke-width="3" stroke-linecap="round" stroke-linejoin="round"/>
<path d="M100.326 41.8662C100.326 44.5476 99.9856 46.8586 99.2893 48.829L93.0818 51.9402C92.7559 52.0736 92.4448 52.2365 92.1337 52.4143C90.43 53.3921 89.1115 54.7253 88.1337 56.429C87.7337 57.0956 87.4078 57.8217 87.1411 58.6069L64.667 69.8514C68.6818 67.5551 70.6967 63.1699 70.6967 56.681C70.6967 51.5995 69.4522 46.3699 66.9781 41.0069C66.3115 39.5402 65.5411 38.0588 64.667 36.5625C64.1189 35.6291 63.5559 34.7253 62.9781 33.8512C59.3189 28.2808 55.0522 24.0734 50.1633 21.2586C45.0078 18.2808 40.504 17.6143 36.7114 19.2736L65.2893 4.99201C69.3041 2.69572 74.1485 3.18458 79.793 6.44384C85.4374 9.70309 90.267 14.8143 94.2967 21.7476C98.3115 28.681 100.326 35.3921 100.326 41.8662Z" stroke="#B4C1FF" stroke-width="3" stroke-linecap="round" stroke-linejoin="round"/>
<path d="M100.326 106.681C100.326 109.362 99.9853 111.688 99.289 113.644L93.2445 116.681L92.1334 117.229C90.4445 118.192 89.1112 119.525 88.1334 121.229C87.7482 121.896 87.4223 122.622 87.1408 123.407L64.6667 134.651C68.6816 132.37 70.6964 127.984 70.6964 121.496C70.6964 116.414 69.4519 111.199 66.9927 105.836C66.3112 104.355 65.5408 102.859 64.6667 101.362C64.1186 100.414 63.5556 99.4956 62.963 98.6215C59.3038 93.066 55.0371 88.8882 50.163 86.0734C44.9482 83.066 40.4296 82.4143 36.6074 84.1476L65.289 69.8067C69.3038 67.5104 74.1482 67.9993 79.7927 71.2586C83.0519 73.14 86.0297 75.6289 88.7556 78.74C89.6445 81.0363 90.7704 83.3623 92.1334 85.703C93.8371 88.6511 95.689 91.2586 97.6741 93.5252C99.4519 98.0141 100.326 102.399 100.326 106.681Z" stroke="#B4C1FF" stroke-width="3" stroke-linecap="round" stroke-linejoin="round"/>
<path d="M156.815 74.4734C156.815 80.9623 154.8 85.3476 150.77 87.6439L121.141 102.459C125.17 100.162 127.185 95.7771 127.185 89.2882C127.185 84.2067 125.941 78.9771 123.452 73.6141C122.785 72.1475 122.015 70.666 121.141 69.1697C120.593 68.2215 120.03 67.3178 119.452 66.4438C115.793 60.8882 111.511 56.6808 106.637 53.866C103.615 52.1327 100.845 51.1845 98.2964 51.0364C96.4297 50.903 94.6964 51.2143 93.0815 51.9402L99.2889 48.829L121.763 37.5993C125.793 35.3178 130.622 35.7919 136.267 39.0512C141.911 42.3104 146.756 47.4215 150.77 54.3549C154.8 61.2882 156.815 67.9993 156.815 74.4734Z" stroke="#B4C1FF" stroke-width="3" stroke-linecap="round" stroke-linejoin="round"/>
<path d="M124.223 164.474C125.171 163.259 125.897 161.778 126.415 160.074C126.919 158.355 127.185 156.37 127.185 154.104C127.185 149.022 125.941 143.807 123.467 138.429C122.785 136.962 122.015 135.466 121.141 133.97C120.593 133.022 120.015 132.103 119.437 131.214C115.778 125.673 111.511 121.496 106.637 118.681C103.63 116.947 100.845 115.984 98.2966 115.836C96.504 115.718 94.8151 116.014 93.2448 116.681L92.1336 117.229C90.4448 118.192 89.1114 119.525 88.1336 121.229C87.7485 121.896 87.4225 122.622 87.141 123.407C86.4447 125.377 86.104 127.688 86.104 130.385C86.104 136.873 88.1188 143.584 92.1336 150.518C96.1633 157.452 100.993 162.548 106.637 165.807C108.519 166.904 110.341 167.689 112.089 168.148C113.852 168.622 115.497 168.77 117.037 168.578L132.83 195.659L140.015 191.57L124.223 164.474ZM113.897 154.755C111.882 155.896 109.467 155.659 106.637 154.03C103.823 152.4 101.393 149.852 99.3929 146.385C97.3781 142.918 96.3707 139.555 96.3707 136.325C96.3707 133.096 97.3781 130.888 99.3929 129.733C101.393 128.592 103.823 128.829 106.637 130.459C109.467 132.088 111.882 134.636 113.897 138.118C115.911 141.584 116.904 144.933 116.904 148.178C116.904 151.422 115.911 153.615 113.897 154.755Z" stroke="#B4C1FF" stroke-width="3" stroke-linecap="round" stroke-linejoin="round"/>
<path d="M116.903 148.178C116.903 151.422 115.911 153.613 113.896 154.754C111.881 155.895 109.466 155.658 106.637 154.028C103.822 152.399 101.392 149.852 99.3923 146.385C97.3775 142.918 96.3701 139.555 96.3701 136.325C96.3701 133.096 97.3775 130.888 99.3923 129.733C101.392 128.592 103.822 128.829 106.637 130.459C109.466 132.088 111.881 134.636 113.896 138.118C115.911 141.585 116.903 144.933 116.903 148.178Z" stroke="#B4C1FF" stroke-width="3" stroke-linecap="round" stroke-linejoin="round"/>
<path d="M156.815 139.288C156.815 141.555 156.549 143.54 156.045 145.259C155.527 146.962 154.801 148.444 153.853 149.659L124.223 164.474C125.171 163.259 125.897 161.778 126.415 160.074C126.919 158.356 127.186 156.37 127.186 154.104C127.186 149.022 125.941 143.807 123.467 138.429C122.786 136.962 122.015 135.466 121.141 133.97C120.593 133.022 120.015 132.103 119.438 131.214C115.778 125.673 111.512 121.496 106.638 118.681C103.63 116.947 100.845 115.984 98.297 115.836C96.5044 115.718 94.8155 116.014 93.2451 116.681L99.2896 113.658L121.764 102.414C125.793 100.118 130.623 100.607 136.267 103.866C141.912 107.125 146.756 112.222 150.771 119.155C154.801 126.103 156.815 132.814 156.815 139.288Z" stroke="#B4C1FF" stroke-width="3" stroke-linecap="round" stroke-linejoin="round"/>
<path d="M169.644 176.756L140.014 191.57L124.222 164.474L153.851 149.659L169.644 176.756Z" stroke="#B4C1FF" stroke-width="3" stroke-linecap="round" stroke-linejoin="round"/>
<path d="M132.83 195.659L162.46 180.844" stroke="#B4C1FF" stroke-width="3" stroke-linecap="round" stroke-linejoin="round"/>
</svg>
