<svg width="223" height="262" viewBox="0 0 223 262" fill="none" xmlns="http://www.w3.org/2000/svg">
<path d="M58.7734 142.333V182.03L4.22949 150.55V110.854L38.6071 130.702L56.7886 141.182L58.7734 142.333Z" stroke="#CD8CFF" stroke-width="3.93" stroke-linecap="round" stroke-linejoin="round"/>
<path d="M217.953 111.31L183.576 131.159L165.513 141.579L163.747 142.592L145.585 132.112L147.332 131.099L165.394 120.659L181.71 111.231L145.347 90.2511L163.409 79.8108L217.953 111.31Z" stroke="#CD8CFF" stroke-width="3.93" stroke-linecap="round" stroke-linejoin="round"/>
<path d="M76.8353 131.913L58.7734 142.333L56.7886 141.182L38.6071 130.702L4.22949 110.854L58.4358 79.5525L76.6172 90.0524L40.4729 110.913L56.6693 120.262L74.8505 130.762L76.8353 131.913Z" stroke="#CD8CFF" stroke-width="3.93" stroke-linecap="round" stroke-linejoin="round"/>
<path d="M217.951 111.31V151.007L163.745 182.288V142.591L165.511 141.579L183.573 131.158L217.951 111.31Z" stroke="#CD8CFF" stroke-width="3.93" stroke-linecap="round" stroke-linejoin="round"/>
<path d="M163.746 142.591V182.288L145.585 171.808V132.111L163.746 142.591Z" stroke="#CD8CFF" stroke-width="3.93" stroke-linecap="round" stroke-linejoin="round"/>
<path d="M181.71 111.23L165.394 120.658L147.332 131.099L145.347 129.947V90.2505L181.71 111.23Z" stroke="#CD8CFF" stroke-width="3.93" stroke-linecap="round" stroke-linejoin="round"/>
<path d="M76.6169 90.0522V129.749L74.8504 130.762L56.6692 120.262L40.4727 110.913L76.6169 90.0522Z" stroke="#CD8CFF" stroke-width="3.93" stroke-linecap="round" stroke-linejoin="round"/>
<path d="M76.836 131.913V171.61L58.7739 182.031V142.334L76.836 131.913Z" stroke="#CD8CFF" stroke-width="3.93" stroke-linecap="round" stroke-linejoin="round"/>
</svg>
