<svg width="200" height="200" viewBox="0 0 200 200" fill="none" xmlns="http://www.w3.org/2000/svg">
<path d="M140.094 168.86C139.199 161.386 136.497 153.772 131.971 145.965C127.901 138.965 123.234 133.281 117.936 128.93C115.865 127.228 113.708 125.719 111.462 124.421C109.655 123.369 107.901 122.526 106.199 121.877C104.444 121.193 102.76 120.755 101.129 120.526C97.9006 120.053 94.9181 120.439 92.1988 121.684L90.9708 122.298C86.5497 124.825 83.8655 129.176 82.9006 135.369C82.6374 137.07 82.4971 138.93 82.4971 140.93C82.4971 150.123 85.3216 159.596 90.9708 169.333C96.6199 179.088 103.462 186.263 111.462 190.895C119.48 195.526 126.322 196.228 131.971 193C137.62 189.789 140.444 183.579 140.444 174.386C140.444 172.561 140.339 170.702 140.094 168.86ZM107.269 170.193L95.5322 149.947L101.62 146.316L107.269 156.053L121.322 148.386L127.409 158.877L107.269 170.193Z" stroke="#91E8CE" stroke-width="3" stroke-linecap="round" stroke-linejoin="round"/>
<path d="M127.409 158.877L107.269 170.193L95.5317 149.947L101.619 146.316L107.269 156.053L121.321 148.386L127.409 158.877Z" stroke="#91E8CE" stroke-width="3" stroke-linecap="round" stroke-linejoin="round"/>
<path d="M126.972 123.562C124.656 121.105 121.972 118.667 118.937 116.246C118.744 116.105 118.568 115.947 118.375 115.807C116.217 114.123 114.217 112.719 112.34 111.614C111.744 111.246 111.165 110.912 110.603 110.614C109.27 109.86 107.954 109.193 106.656 108.614C97.0069 104.175 88.8666 104.105 82.2175 108.439C81.9017 108.632 81.6034 108.842 81.3052 109.088C74.3754 114.053 70.9192 122.509 70.9192 134.404C70.9192 135.509 70.9368 136.614 70.9894 137.684C71.042 138.772 71.1648 139.912 71.3578 141.141L24.5684 114.123L50.6385 82.6491L24.5684 21.0526L80.8315 53.5263L100.182 64.7018L113.516 93.9826L119.832 107.877L120.761 109.895L126.972 123.562Z" stroke="#91E8CE" stroke-width="3" stroke-linecap="round" stroke-linejoin="round"/>
<path d="M162.059 106.018L152.375 110.86L126.971 123.562L120.761 109.895L119.831 107.877L113.515 93.9826L100.182 64.7018L135.269 47.1579L162.059 106.018Z" stroke="#91E8CE" stroke-width="3" stroke-linecap="round" stroke-linejoin="round"/>
<path d="M135.27 47.1579L100.182 64.7018L80.8315 53.5263L24.5684 21.0526L59.6561 3.50879L135.27 47.1579Z" stroke="#91E8CE" stroke-width="3" stroke-linecap="round" stroke-linejoin="round"/>
<path d="M175.533 156.842C175.533 166.035 172.708 172.246 167.059 175.456L165.287 176.333L131.972 193C137.621 189.789 140.445 183.579 140.445 174.386C140.445 172.561 140.34 170.702 140.094 168.86C139.2 161.386 136.498 153.772 131.972 145.965C127.901 138.965 123.235 133.281 117.937 128.93C115.866 127.228 113.708 125.719 111.463 124.421C109.656 123.368 107.901 122.526 106.2 121.877C104.445 121.193 102.761 120.755 101.13 120.527C97.9015 120.053 94.919 120.439 92.1997 121.684L98.0594 118.755L106.042 114.772L112.34 111.614C114.217 112.719 116.217 114.123 118.375 115.807C118.568 115.947 118.744 116.105 118.937 116.246C121.972 118.667 124.656 121.105 126.972 123.562L152.375 110.86C157.937 115.263 162.831 121.141 167.059 128.421C172.708 138.176 175.533 147.632 175.533 156.842Z" stroke="#91E8CE" stroke-width="3" stroke-linecap="round" stroke-linejoin="round"/>
<path d="M106.656 108.614C106.322 110.544 106.112 112.579 106.042 114.754L98.0593 118.754L92.1996 121.684L90.9716 122.298C86.5505 124.825 83.8663 129.175 82.9014 135.368L71.3575 141.14C71.1646 139.912 71.0418 138.772 70.9891 137.684C70.9365 136.614 70.9189 135.509 70.9189 134.403C70.9189 122.509 74.3751 114.053 81.3049 109.088C81.6032 108.842 81.9014 108.632 82.2172 108.439C88.8663 104.105 97.0067 104.175 106.656 108.614Z" stroke="#91E8CE" stroke-width="3" stroke-linecap="round" stroke-linejoin="round"/>
</svg>
