<svg width="200" height="200" viewBox="0 0 200 200" fill="none" xmlns="http://www.w3.org/2000/svg">
<path d="M159.531 123.719L159.469 119.187L159.39 112.281H159.125L118.234 112.156L108.859 112.125L91.1719 112.078L81.875 112.047H74.9219L55.1875 123.422L75.0313 134.875L159.672 135.031L159.531 123.719ZM133.563 127.188L133.531 120.125H145.75L145.797 127.016L133.563 127.188Z" stroke="#F5D589" stroke-width="3" stroke-linecap="round" stroke-linejoin="round"/>
<path d="M145.797 127.016L133.563 127.187L133.531 120.125L145.75 120.141L145.797 127.016Z" stroke="#F5D589" stroke-width="3" stroke-linecap="round" stroke-linejoin="round"/>
<path d="M195.469 90.2342V90.2654C195.469 93.1561 193.719 95.6248 190.203 97.6561C186.672 99.6873 182.391 100.703 177.344 100.687C172.297 100.687 168 99.6561 164.453 97.6092C160.906 95.5623 159.125 93.0779 159.109 90.1717C159.094 87.2498 160.844 84.7811 164.375 82.7498C167.906 80.7029 172.188 79.6873 177.234 79.7029C182.266 79.7029 186.563 80.7342 190.125 82.7967C193.672 84.8436 195.453 87.3123 195.469 90.2342Z" stroke="#F5D589" stroke-width="3" stroke-linecap="round" stroke-linejoin="round"/>
<path d="M156.719 67.8591V67.8903C156.719 70.7966 154.969 73.2653 151.453 75.2809C147.922 77.3278 143.641 78.3434 138.594 78.3278C133.547 78.3278 129.25 77.2966 125.703 75.2341C122.156 73.1872 120.375 70.7184 120.359 67.7966C120.344 64.8903 122.094 62.4216 125.625 60.3747C129.156 58.3434 133.438 57.3278 138.484 57.3434C143.516 57.3434 147.813 58.3747 151.375 60.4216C154.922 62.4684 156.703 64.9528 156.719 67.8591Z" stroke="#F5D589" stroke-width="3" stroke-linecap="round" stroke-linejoin="round"/>
<path d="M118.235 90.0938V90.1251C118.235 93.0157 116.485 95.4844 112.969 97.5157C109.438 99.5469 105.156 100.563 100.11 100.563C95.0783 100.547 90.7814 99.5157 87.2189 97.4688C83.672 95.4219 81.8908 92.9376 81.8751 90.0313C81.8595 87.4844 83.1876 85.2813 85.8595 83.4219C86.2501 83.1407 86.6876 82.8751 87.1408 82.6094C90.672 80.5626 94.9533 79.5469 100 79.5626C105.047 79.5626 109.344 80.5938 112.891 82.6563C113.281 82.8907 113.656 83.1251 114.016 83.3594C116.813 85.2657 118.219 87.5157 118.235 90.0938Z" stroke="#F5D589" stroke-width="3" stroke-linecap="round" stroke-linejoin="round"/>
<path d="M118 45.4998V45.531C118 48.4217 116.234 50.906 112.734 52.9217C109.203 54.9529 104.906 55.9685 99.8751 55.9685C94.8282 55.9529 90.5314 54.9217 86.9845 52.8748C83.4376 50.8279 81.6564 48.3435 81.6407 45.4373C81.6251 42.531 83.3751 40.0466 86.9064 38.0154C90.4376 35.9685 94.7189 34.9685 99.7657 34.9685C104.797 34.9841 109.094 36.0154 112.641 38.0623C116.203 40.1091 117.984 42.5935 118 45.4998Z" stroke="#F5D589" stroke-width="3" stroke-linecap="round" stroke-linejoin="round"/>
<path d="M79.5001 67.7344V67.7657C79.5001 70.6563 77.7501 73.1251 74.2345 75.1563C70.7032 77.1876 66.422 78.2032 61.3751 78.1876C56.3282 78.1876 52.0314 77.1563 48.4845 75.1094C44.9376 73.0469 43.1564 70.5782 43.1407 67.6563C43.1251 64.7501 44.8751 62.2813 48.4064 60.2344C51.9376 58.2032 56.2189 57.1876 61.2657 57.2032C66.297 57.2032 70.5939 58.2344 74.1564 60.2813C77.7032 62.3282 79.4845 64.8126 79.5001 67.7344Z" stroke="#F5D589" stroke-width="3" stroke-linecap="round" stroke-linejoin="round"/>
<path d="M79.5 67.7653V98.984C79.5156 101.89 77.7656 104.359 74.2344 106.406C70.7031 108.437 66.4219 109.453 61.375 109.437C56.3281 109.437 52.0313 108.406 48.4844 106.359C44.9375 104.297 43.1563 101.828 43.1406 98.9059V67.6559C43.1563 70.5778 44.9375 73.0465 48.4844 75.109C52.0313 77.1559 56.3281 78.1871 61.375 78.1871C66.4219 78.1871 70.7031 77.1871 74.2344 75.1559C77.75 73.1246 79.5 70.6559 79.5 67.7653Z" stroke="#F5D589" stroke-width="3" stroke-linecap="round" stroke-linejoin="round"/>
<path d="M41 89.9527V89.9839C41 92.8746 39.25 95.3589 35.7344 97.3746C32.2032 99.4058 27.9219 100.421 22.875 100.421C17.8438 100.406 13.547 99.3746 10.0001 97.3277C6.43759 95.2808 4.65635 92.7964 4.64073 89.8902C4.6251 86.9683 6.39071 84.4996 9.90634 82.4683C13.4376 80.4214 17.7188 79.4058 22.7657 79.4214C27.8125 79.4371 32.1094 80.4527 35.6563 82.5152C39.2032 84.5621 40.9844 87.0464 41 89.9527Z" stroke="#F5D589" stroke-width="3" stroke-linecap="round" stroke-linejoin="round"/>
<path d="M41 89.984V121.203C41.0157 124.109 39.2657 126.593 35.7344 128.625C32.2032 130.656 27.9219 131.672 22.875 131.672C17.8438 131.656 13.5469 130.625 9.99998 128.578C6.43748 126.531 4.65625 124.047 4.64062 121.14V89.8903C4.65625 92.7965 6.43748 95.2809 9.99998 97.3278C13.5469 99.3746 17.8438 100.406 22.875 100.422C27.9219 100.422 32.2032 99.4059 35.7344 97.3746C39.25 95.359 41 92.8746 41 89.984Z" stroke="#F5D589" stroke-width="3" stroke-linecap="round" stroke-linejoin="round"/>
<path d="M118 45.5314V76.7502C118 79.2814 116.672 81.4845 114.016 83.3595C113.656 83.1252 113.281 82.8908 112.891 82.6564C109.344 80.5939 105.047 79.5783 100 79.5626C94.9531 79.547 90.6719 80.5626 87.1406 82.6095C86.6875 82.8751 86.25 83.1408 85.8594 83.422C83.0625 81.5158 81.6563 79.2658 81.6406 76.6876V45.4376C81.6563 48.3439 83.4375 50.8283 86.9844 52.8752C90.5312 54.922 94.8281 55.9533 99.875 55.9689C104.906 55.9689 109.203 54.9533 112.734 52.922C116.234 50.9064 118 48.422 118 45.5314Z" stroke="#F5D589" stroke-width="3" stroke-linecap="round" stroke-linejoin="round"/>
<path d="M118.234 90.1251V112.156L108.859 112.125L91.1719 112.078L81.875 112.047V90.0314C81.8906 92.9376 83.6719 95.422 87.2187 97.4689C90.7812 99.5158 95.0781 100.547 100.109 100.563C105.156 100.563 109.438 99.547 112.969 97.5157C116.484 95.4845 118.234 93.0157 118.234 90.1251Z" stroke="#F5D589" stroke-width="3" stroke-linecap="round" stroke-linejoin="round"/>
<path d="M75.0313 134.875V166.125L55.1875 154.671V123.421L75.0313 134.875Z" stroke="#F5D589" stroke-width="3" stroke-linecap="round" stroke-linejoin="round"/>
<path d="M156.719 67.89V99.1088C156.734 102.031 154.984 104.499 151.453 106.531C147.922 108.578 143.641 109.593 138.594 109.578C133.547 109.578 129.25 108.546 125.703 106.484C122.156 104.437 120.375 101.968 120.359 99.0463V67.7963C120.375 70.7181 122.156 73.187 125.703 75.2339C129.25 77.2964 133.547 78.3277 138.594 78.3277C143.641 78.3433 147.922 77.3275 151.453 75.2806C154.969 73.265 156.719 70.7963 156.719 67.89Z" stroke="#F5D589" stroke-width="3" stroke-linecap="round" stroke-linejoin="round"/>
<path d="M195.469 90.2656V121.484C195.484 124.391 193.734 126.859 190.203 128.906C186.672 130.938 182.391 131.953 177.344 131.938C172.297 131.938 168 130.906 164.453 128.859C161.891 127.375 160.234 125.656 159.531 123.719L159.469 119.187L159.391 112.281H159.125V90.1719C159.125 93.0781 160.906 95.5625 164.453 97.6094C168 99.6563 172.297 100.687 177.344 100.687C182.391 100.703 186.672 99.6875 190.203 97.6563C193.719 95.625 195.469 93.1563 195.469 90.2656Z" stroke="#F5D589" stroke-width="3" stroke-linecap="round" stroke-linejoin="round"/>
<path d="M159.672 135.031V166.281L75.0312 166.125V134.875L159.672 135.031Z" stroke="#F5D589" stroke-width="3" stroke-linecap="round" stroke-linejoin="round"/>
</svg>
