<svg width="200" height="200" viewBox="0 0 200 200" fill="none" xmlns="http://www.w3.org/2000/svg">
<path d="M195.815 107.773L145.24 136.977L94.3328 107.588C90.8328 105.569 86.5922 104.551 81.6293 104.532C76.6663 104.532 72.4441 105.532 68.9626 107.532L62.1663 111.458L49.5365 118.754L42.5552 122.773H56.5182L62.5367 122.81L62.7589 133.162H60.6108L12.0181 133.069L11.8514 103.773H23.6478L29.6108 103.81L29.6846 107.273L29.833 115.421L36.7958 111.403L49.4441 104.106L56.2402 100.18C59.7217 98.1804 61.4441 95.7359 61.4256 92.8655C61.407 90.0137 59.6478 87.5692 56.1478 85.5322L50.055 82.0137L37.333 74.6618L5.25879 56.1433L55.833 26.9395L68.5552 34.2915L30.6293 56.1989L49.9626 67.3655L62.7034 74.7174L68.7959 78.2359C72.6293 80.4396 75.407 82.9396 77.1663 85.7174C78.9256 88.4952 79.6478 91.3285 79.3515 94.1804C84.3145 94.0137 89.2217 94.4396 94.0365 95.4581C98.8513 96.4581 103.166 98.0692 106.981 100.273L145.148 122.329L183.092 100.421L195.815 107.773Z" stroke="#FFAEAE" stroke-width="3" stroke-linecap="round" stroke-linejoin="round"/>
<path d="M62.7597 133.162V170.199L12.019 170.106V133.069L60.6116 133.162H62.7597Z" stroke="#FFAEAE" stroke-width="3" stroke-linecap="round" stroke-linejoin="round"/>
<path d="M145.24 136.976V174.014L94.3325 144.625C90.8325 142.606 86.5917 141.588 81.6288 141.569C76.6658 141.569 72.4436 142.569 68.9621 144.569L62.7584 148.143V133.162L62.5362 122.81H56.5177L42.5547 122.773L49.5362 118.754L62.1658 111.458L68.9621 107.532C72.4436 105.532 76.6658 104.532 81.6288 104.532C86.5917 104.551 90.8325 105.569 94.3325 107.588L145.24 136.976Z" stroke="#FFAEAE" stroke-width="3" stroke-linecap="round" stroke-linejoin="round"/>
<path d="M195.815 107.773V144.81L145.24 174.014V136.976L195.815 107.773Z" stroke="#FFAEAE" stroke-width="3" stroke-linecap="round" stroke-linejoin="round"/>
<path d="M61.4256 92.8656C61.4441 95.7359 59.7217 98.1804 56.2402 100.18L49.4441 104.106L36.7958 111.403L29.6846 107.273L29.6108 103.81H23.6478L5.25879 93.1804V56.1433L37.333 74.6619L50.055 82.0137L56.1478 85.5322C59.6478 87.5693 61.407 90.0137 61.4256 92.8656Z" stroke="#FFAEAE" stroke-width="3" stroke-linecap="round" stroke-linejoin="round"/>
<path d="M68.5555 34.2918V71.3289L62.7035 74.7178L49.9627 67.3659L30.6294 56.1993L68.5555 34.2918Z" stroke="#FFAEAE" stroke-width="3" stroke-linecap="round" stroke-linejoin="round"/>
<path d="M12.0173 133.07V170.107L11.8506 140.81V103.773L12.0173 133.07Z" stroke="#FFAEAE" stroke-width="3" stroke-linecap="round" stroke-linejoin="round"/>
</svg>
